<svg xmlns="http://www.w3.org/2000/svg" width="30" height="30" viewBox="0 0 30 30">
  <path d="M20.1261663,14.3607789 L13.0203489,7.25509128 C12.856,7.09061258 12.6366085,7 12.4026775,7 C12.1687465,7 11.949355,7.09061258 11.7850061,7.25509128 L11.261712,7.77825558 C10.9212008,8.11915619 10.9212008,8.67321704 11.261712,9.01359838 L17.228641,14.9805274 L11.2550913,20.9540771 C11.0907424,21.1185558 11,21.3378174 11,21.5716187 C11,21.8056795 11.0907424,22.0249412 11.2550913,22.1895497 L11.7783854,22.7125842 C11.9428641,22.8770629 12.1621258,22.9676755 12.3960568,22.9676755 C12.6299878,22.9676755 12.8493793,22.8770629 13.0137282,22.7125842 L20.1261663,15.6004057 C20.2909047,15.4354077 20.3813874,15.2151075 20.3808682,14.9809168 C20.3813874,14.7458174 20.2909047,14.5256471 20.1261663,14.3607789 Z"/>
</svg>
