<svg xmlns="http://www.w3.org/2000/svg" width="30" height="30" viewBox="0 0 30 30" class="arrowIcon">
  <path fill="#0BBD20"  d="M22.3073669,14.2516716 L9.36461635,14.2516716 L12.4529455,11.1770025 C12.7235028,10.9078186 12.7235028,10.4711514 12.4529455,10.2020074 C12.1823882,9.93266421 11.7437526,9.93266421 11.4735953,10.2020074 L7.20291797,14.4535993 C6.93236068,14.7227831 6.93236068,15.1594902 7.20291797,15.4285944 L11.4735953,19.6803854 C11.6088339,19.8150968 11.7860721,19.8823529 11.9632704,19.8823529 C12.1404686,19.8823529 12.3177068,19.8150968 12.4529455,19.6803854 C12.7235028,19.4112015 12.7235028,18.9745343 12.4529455,18.7054301 L9.36461635,15.6306017 L22.3073669,15.6306017 C22.6898431,15.6306017 23,15.3218765 23,14.9411167 C23,14.560357 22.6898831,14.2516716 22.3073669,14.2516716 Z" transform="rotate(-180 15 14.941)"/>
</svg>
