<?xml version="1.0" encoding="UTF-8"?>
<svg width="56px" height="82px" viewBox="0 0 56 82" version="1.1" xmlns="http://www.w3.org/2000/svg" xmlns:xlink="http://www.w3.org/1999/xlink">
    <!-- Generator: Sketch 48.2 (47327) - http://www.bohemiancoding.com/sketch -->
    <title>baby</title>
    <desc>Created with Sketch.</desc>
    <defs></defs>
    <g id="Desctop" stroke="none" stroke-width="1" fill="none" fill-rule="evenodd">
        <g id="baby" fill="#000000" fill-rule="nonzero">
            <path d="M54.3249406,43.0961576 L50.6931504,39.690285 C50.2099577,39.2367273 49.4417349,39.25222 48.9777923,39.7249065 C48.5138497,40.1972769 48.529541,40.9478842 49.0132189,41.4012839 L52.6448474,44.8071565 C53.7173506,45.8129197 53.8753952,47.4056678 53.0207897,48.5938659 C51.8806686,50.1796581 49.6675591,50.621043 47.9822893,49.5991548 L44.0272922,47.1999938 C43.1223777,46.6511083 42.0010214,46.6549025 41.1003129,47.2090049 C40.1994425,47.7631074 39.7110734,48.7497418 39.8259267,49.7838029 L41.0572833,60.8829258 C41.1239306,61.4833484 40.8196502,60.5602659 45.2253252,73.4851604 C45.2377811,73.5215209 45.2520164,73.5575652 45.2680312,73.5928191 C45.3576491,73.7901143 45.4336788,73.9986339 45.4940172,74.2128447 C45.6389588,74.7272668 46.117622,75.0837578 46.6635795,75.0837578 L48.0374512,75.0837578 C49.3469405,75.0837578 50.4896498,76.1925951 50.348914,77.5948459 L50.3487523,77.5948459 C50.2214431,78.7596467 49.1939106,79.6281885 48.0374512,79.6281885 C39.2398514,79.574122 39.4726315,79.7522885 38.7425852,79.4636177 C38.7200999,79.4546066 38.6976145,79.4465441 38.6746438,79.4389558 C37.9994359,79.2166825 37.4128754,78.8127647 36.9712564,78.2675152 L30.7997526,64.8957027 C30.7829291,64.8596583 30.7646496,64.8245626 30.7442672,64.7902572 C30.3938838,64.1974229 29.8712205,63.7531924 29.2552186,63.5015145 L29.2552186,44.3741503 C29.2552186,43.719187 28.7121729,43.1884817 28.0419797,43.1884817 C27.3717865,43.1884817 26.8287408,43.719187 26.8287408,44.3741503 L26.8287408,63.5016726 C26.0967533,63.8007772 25.5186045,64.3923468 25.2842067,64.8958608 L19.1123795,78.2676733 C18.4065979,79.1390607 17.2598445,79.6283466 16.4781951,79.6283466 L8.0461846,79.6283466 C6.70984237,79.6283466 5.58686842,78.4758767 5.7347218,77.1172586 L5.73488357,77.1172586 C5.86106042,75.9573585 6.8853576,75.0839159 8.0461846,75.0839159 L9.42005635,75.0839159 C9.96601387,75.0839159 10.4448388,74.7274249 10.5897804,74.2130028 C10.7064131,73.7978607 10.8086487,73.6306024 10.8583107,73.4853185 L11.6145629,71.258949 C11.8256665,70.6373425 11.4812684,69.966254 10.8453694,69.7601058 C10.2093087,69.5541156 9.52277725,69.8905293 9.31167368,70.5118197 C9.05851115,71.2553129 8.58308326,72.6626225 8.56156849,72.7125787 L8.04602283,72.7125787 C4.89532223,72.7125787 2.59744772,75.6903459 3.48731802,78.6630543 L3.50624455,78.7223377 C4.11739344,80.6521319 5.98416373,81.9998419 8.04602283,81.9998419 L16.4780333,81.9998419 C18.4771276,81.9998419 20.7387667,80.5114326 21.2670918,79.3668671 L27.465125,65.9376683 C27.6475962,65.667652 27.9266411,65.637615 28.0416562,65.637615 C28.156833,65.637615 28.4358779,65.667652 28.6180255,65.9375102 L34.8162205,79.3668671 C34.8518089,79.4438566 34.8956472,79.5168937 34.9470886,79.5848721 C35.6857084,80.5598079 36.6944761,81.2821172 37.8656561,81.6752849 C38.4221284,81.8907604 39.0072331,82 39.6051172,82 L48.0371277,82 C50.7555917,82 53.037775,79.6877881 52.7673036,76.9125331 C52.5448765,74.5650673 50.4673262,72.7125787 48.0371277,72.7125787 L47.5217438,72.7125787 C47.4798466,72.619148 43.8001739,61.7318645 43.7336884,61.5870549 C43.3658343,60.7779546 43.5874526,61.2169682 42.2376839,49.5284889 C42.219728,49.360124 42.3120959,49.2657447 42.3928167,49.2161048 C42.4735375,49.1663067 42.600685,49.1253616 42.7477295,49.21484 L46.7027267,51.614001 C49.4792644,53.2981247 53.1267459,52.5704403 55.0061338,49.9573848 C56.5545502,47.8040525 56.2682259,44.9184513 54.3249406,43.0961576 Z M5.73375121,77.1169424 L5.73375121,77.1194718 L5.73358945,77.1208946 L5.73375121,77.1169424 Z M50.3502082,77.5948459 L50.3503699,77.5924745 C50.3503699,77.5924745 50.3505317,77.5912098 50.3505317,77.5905775 L50.3502082,77.5948459 Z" id="Shape"></path>
            <path d="M48.3137255,17.2087568 C48.3137255,14.1851078 46.0058345,11.6937518 43.0675761,11.4191078 C42.215336,8.95083923 40.9228596,6.85084691 39.2273118,5.07648326 C39.1960486,5.0437761 39.1644665,5.01138959 39.1330438,4.97884276 C39.0263344,4.86901723 38.9186679,4.76031401 38.8094063,4.65369507 C30.8948825,-3.09437555 18.2377695,-0.837741565 13.1120471,8.97472829 C13.0999247,8.99797603 13.0917899,9.02234607 13.0812625,9.04623512 C12.6883994,9.80491307 12.3492898,10.5979015 12.0676024,11.4194285 C9.12966304,11.6940724 6.82145302,14.1852681 6.82145302,17.2090775 C6.82145302,20.2328869 9.12950354,22.7240825 12.0676024,22.9987265 C12.7923973,25.1126675 13.9022394,27.0362976 15.308603,28.6772673 L14.6412303,30.11029 C14.2880842,30.4392856 16.2200198,28.5863607 1.65154745,42.6339273 C-0.264437549,44.4820424 -0.54676301,47.4085319 0.979868058,49.5923764 C2.83300773,52.2426187 6.42922798,52.9802935 9.16730644,51.2724665 L13.0670664,48.83931 C13.2120573,48.7488843 13.337429,48.7900889 13.4170224,48.8405926 C13.4966159,48.8907757 13.5876937,48.9866525 13.5693506,49.1572429 C12.2408258,60.9898611 12.4567968,60.5673935 12.0943994,61.3861949 C12.0503758,61.4855991 12.1219939,61.290799 10.8579096,65.1117654 C10.6497544,65.7421799 10.9893425,66.4227775 11.6163602,66.6318469 C12.244654,66.8410765 12.9207995,66.4989339 13.1286357,65.8694813 C14.6463345,61.3162914 14.6517577,61.4312475 14.7337437,60.6724092 L15.9479027,49.4163349 C16.0611519,48.367461 15.5796035,47.3668463 14.6913151,46.8048923 C13.8028672,46.2429383 12.6968532,46.2392508 11.8052152,46.7957535 L7.90545518,49.22891 C6.24388211,50.2655989 4.06152225,49.8174786 2.93732459,48.2093764 C2.09465487,47.0041816 2.25049214,45.3890248 3.30785682,44.3690102 L15.3523076,32.7518745 C21.2221251,41.8010169 33.955482,41.7344803 39.7820734,32.7518745 L44.2171352,37.0294585 C44.6935793,37.4894431 45.4510729,37.4737308 45.9085359,36.9943464 C46.3659988,36.5152827 46.3505267,35.7540394 45.8736041,35.2942152 C42.7704166,32.303113 40.8297082,30.4232527 40.4928317,30.1091677 L39.8238639,28.6801533 C41.2315036,27.0385422 42.3421432,25.1139501 43.0674166,22.9985662 C46.005675,22.7237618 48.3137255,20.2324059 48.3137255,17.2087568 Z M43.7454762,14.0250992 C46.6405085,15.1474038 46.6401895,19.2707511 43.7454762,20.3930558 C44.1206341,18.2864899 44.1207936,16.1234882 43.7454762,14.0250992 Z M11.3897023,20.3927351 C8.49467002,19.2704305 8.49482952,15.1470832 11.3897023,14.0247785 C11.0300165,16.0364294 11.0006674,18.207608 11.3897023,20.3927351 Z M40.4577404,11.2849122 C38.9111711,12.1410704 36.9423896,12.1503694 35.3273923,11.1180095 C34.2003235,10.3971693 32.7698745,10.4236236 31.6831608,11.1845461 C26.6539394,14.7063381 19.7896025,13.9415677 15.6276148,9.39190496 C21.5760687,-0.628832572 35.8958714,0.339556009 40.4577404,11.2849122 Z M16.9653909,30.7916893 L17.10448,30.4929959 C23.1443309,35.7129952 31.9688358,35.7307917 38.0294224,30.4944389 L38.1691496,30.7929719 C33.3530281,39.2248467 21.758384,39.1903759 16.9653909,30.7916893 Z M24.3694957,31.6231567 C15.7609618,29.5095364 11.3782179,19.8665345 14.5171347,11.685575 C19.5477916,16.5312055 27.3023309,17.1837455 33.0509239,13.1578784 C33.3432983,12.9526569 33.7328117,12.9486487 34.0433697,13.1472966 C36.1011555,14.4631187 38.8094063,14.7388849 41.2099703,13.5942945 C43.7207528,24.1075635 34.8495126,34.1709486 24.3694957,31.6231567 Z" id="Shape"></path>
        </g>
    </g>
</svg>