<?xml version="1.0" encoding="UTF-8"?>
<svg width="30px" height="30px" viewBox="0 0 30 30" version="1.1" xmlns="http://www.w3.org/2000/svg" xmlns:xlink="http://www.w3.org/1999/xlink">
    <!-- Generator: Sketch 48.2 (47327) - http://www.bohemiancoding.com/sketch -->
    <title>Icons / Time</title>
    <desc>Created with Sketch.</desc>
    <defs>
        <path d="M15,7 C10.588802,7 7,10.588802 7,15 C7,19.411198 10.588802,23 15,23 C19.411198,23 23,19.411198 23,15 C23,10.588802 19.411198,7 15,7 Z M15,21.2977357 C11.5274599,21.2977357 8.70209963,18.4727048 8.70209963,15 C8.70209963,11.5272952 11.5274599,8.70226431 15,8.70226431 C18.4725401,8.70226431 21.2979004,11.5272952 21.2979004,15 C21.2979004,18.4727048 18.4725401,21.2977357 15,21.2977357 Z M18.6360999,14.7281046 L15.1944668,14.7281046 L15.1944668,10.3359477 C15.1944668,9.96633725 14.9121305,9.66666667 14.5639001,9.66666667 C14.2156696,9.66666667 13.9333333,9.96633725 13.9333333,10.3359477 L13.9333333,15.3973856 C13.9333333,15.7669961 14.2156696,16.0666667 14.5639001,16.0666667 L18.6360999,16.0666667 C18.9843304,16.0666667 19.2666667,15.7669961 19.2666667,15.3973856 C19.2666667,15.0277752 18.9843304,14.7281046 18.6360999,14.7281046 Z" id="path-1"></path>
    </defs>
    <g id="Page-4" stroke="none" stroke-width="1" fill="none" fill-rule="evenodd">
        <g id="Icons-/-Time">
            <mask id="mask-2" fill="white">
                <use xlink:href="#path-1"></use>
            </mask>
            <use id="Combined-Shape" fill="#000000" fill-rule="nonzero" xlink:href="#path-1"></use>
        </g>
    </g>
</svg>