<svg xmlns="http://www.w3.org/2000/svg" width="40" height="17" viewBox="0 0 40 17">
  <path fill-rule="evenodd" d="M25.189617,3.46646283 C22.5140258,3.46646283 20.337242,5.61306191 20.337242,8.25204118 C20.337242,10.8908236 22.5140258,13.0376195 25.189617,13.0376195 C27.8657407,13.0376195 30.042591,10.8908236 30.042591,8.25204118 C30.042591,5.61306191 27.8657407,3.46646283 25.189617,3.46646283 M25.2022619,16.5017393 C20.5961294,16.5017393 16.8495829,12.8061969 16.8495829,8.26372389 C16.8495829,3.72164467 20.5961294,0.0261679525 25.2022619,0.0261679525 C29.8076623,0.0261679525 33.5552737,3.72164467 33.5552737,8.26372389 C33.5552737,12.8061969 29.8076623,16.5017393 25.2022619,16.5017393 Z M37.9633806,16.5700306 L37.6515843,16.5700306 C36.7739627,16.5700306 36.0670471,15.7899801 36.0670471,15.1443465 L36.0559329,1.46317381 C36.0559329,0.821346856 36.792198,0.0372927781 37.6515843,0.0372927781 L37.9633806,0.0372927781 C38.8406695,0.0372927781 39.5469861,0.817277598 39.5469861,1.46317381 L39.5586993,15.1443465 C39.5586993,15.7857796 38.8224342,16.5700306 37.9633806,16.5700306 Z M14.4522856,13.8478547 L14.4045013,13.8043399 L14.4563453,13.8520552 C12.8821236,15.5154628 10.6565572,16.4692443 8.3499304,16.4692443 C3.74586101,16.4692443 -1.9965609e-05,12.7753428 -1.9965609e-05,8.23483872 C-1.9965609e-05,3.69407217 3.74586101,-2.62532758e-05 8.3499304,-2.62532758e-05 C10.5459477,-2.62532758e-05 12.6198421,0.833974681 14.1896048,2.34832925 L14.157926,2.38048952 L14.1896048,2.34832925 C14.4666609,2.61998502 14.7901037,3.12214456 14.7901037,3.64497854 C14.7901037,4.59508459 14.0061874,5.36798102 13.0422478,5.36798102 C12.6352156,5.36798102 12.2427583,5.2269353 11.9301634,4.97254106 L11.9291651,4.97332866 C11.926503,4.97063769 11.9243733,4.9684718 11.9216447,4.96604337 C11.9140578,4.95993948 11.9065374,4.95416376 11.8987508,4.94819114 L11.9006143,4.94550018 C10.9803994,4.03011409 9.62846144,3.46225574 8.36117769,3.46225574 C5.69942928,3.46225574 3.53322727,5.59789408 3.53322727,8.22368108 C3.53322727,10.8490743 5.69942928,12.9851064 8.36117769,12.9851064 C9.87942914,12.9851064 11.3289323,12.0744459 12.1094545,11.2943298 L12.1411333,11.3257681 L12.1112514,11.2920327 C12.4030821,11.0433485 12.6977745,10.9468021 13.1625073,10.9468021 C14.1297745,10.9468021 14.9161533,11.7223239 14.9161533,12.6759085 C14.9161533,13.1113847 14.7516367,13.527696 14.4522856,13.8478547 Z"/>
</svg>
