<svg xmlns="http://www.w3.org/2000/svg" width="30" height="30" viewBox="0 0 30 30">
  <path d="M17.3704073,14.2681302 C16.7425466,13.9211545 16.0750316,13.6567921 15.4141256,13.3825161 C15.0308001,13.2238987 14.6639973,13.038845 14.3401533,12.7810917 C13.702379,12.272194 13.8246466,11.4460615 14.5714704,11.1189131 C14.7829603,11.0263862 15.0043639,10.9966455 15.2290719,10.9834273 C16.0948588,10.9371639 16.9176867,11.0957814 17.7008603,11.4724978 C18.0907949,11.660856 18.2196715,11.6013744 18.3518527,11.1949173 C18.490643,10.7653284 18.6063016,10.3291304 18.7351782,9.89623696 C18.821096,9.60543832 18.715351,9.41377558 18.4410751,9.29150797 C17.9387865,9.07010446 17.4232798,8.91148702 16.8813369,8.82556924 C16.1741675,8.71651975 16.1741675,8.71321522 16.1708629,8.00274127 C16.1675584,7.00146868 16.1675584,7.00146868 15.1629813,7.00146868 C15.017582,7.00146868 14.8721827,6.99816415 14.7267833,7.00146868 C14.2575401,7.0146868 14.1782314,7.09730005 14.1650132,7.56984784 C14.1584042,7.78133776 14.1650132,7.99282768 14.1617087,8.20762213 C14.1584042,8.83548283 14.1550996,8.82556924 13.5536752,9.04366822 C12.099682,9.57239302 11.2008498,10.563752 11.1050184,12.1499264 C11.0191007,13.5543517 11.7527063,14.5027518 12.9059873,15.1933986 C13.6164613,15.6196829 14.4029394,15.8708272 15.1563722,16.2045847 C15.4504754,16.3334614 15.7313605,16.4821653 15.9758957,16.6870461 C16.6995877,17.285166 16.5674065,18.2798296 15.7082287,18.656546 C15.2488991,18.8581223 14.7631332,18.9076903 14.2641491,18.8449042 C13.4941936,18.7490728 12.7572835,18.5474965 12.0633322,18.1873027 C11.656875,17.9758128 11.5379119,18.0319898 11.3991216,18.4714923 C11.2801585,18.8515133 11.1744136,19.2348387 11.0686686,19.6181642 C10.9265738,20.1336709 10.9794463,20.2559385 11.4718213,20.4971692 C12.099682,20.801186 12.7705016,20.9564989 13.4545393,21.0655484 C13.9898731,21.1514662 14.0063958,21.1745979 14.0130049,21.7297589 C14.0163094,21.9809032 14.0163094,22.235352 14.0196139,22.4864963 C14.0229184,22.8037312 14.1749268,22.9887848 14.5020753,22.9953939 C14.8721827,23.002003 15.2455945,23.002003 15.6157019,22.9920894 C15.9197187,22.9854803 16.0750316,22.8202538 16.0750316,22.5129325 C16.0750316,22.1692614 16.0915542,21.8222857 16.0783361,21.4786146 C16.0618135,21.1283344 16.2138218,20.9498898 16.5508839,20.857363 C17.3274484,20.6458731 17.9883544,20.2295023 18.4972521,19.6082506 C19.9115909,17.889895 19.3729525,15.3751477 17.3704073,14.2681302 Z"/>
</svg>
