<svg xmlns="http://www.w3.org/2000/svg" width="32" height="32" viewBox="0 0 32 32">
  <path fill="#ffffff" d="M21.3117526,6.00412371 L18.7416495,6 C15.8542268,6 13.9882474,7.91443299 13.9882474,10.8775258 L13.9882474,13.1263918 L11.4041237,13.1263918 C11.1808247,13.1263918 11,13.3074227 11,13.5307216 L11,16.7890722 C11,17.0123711 11.1810309,17.1931959 11.4041237,17.1931959 L13.9882474,17.1931959 L13.9882474,25.4150515 C13.9882474,25.6383505 14.1690722,25.8191753 14.3923711,25.8191753 L17.7639175,25.8191753 C17.9872165,25.8191753 18.1680412,25.6381443 18.1680412,25.4150515 L18.1680412,17.1931959 L21.1894845,17.1931959 C21.4127835,17.1931959 21.5936082,17.0123711 21.5936082,16.7890722 L21.5948454,13.5307216 C21.5948454,13.4235052 21.5521649,13.3208247 21.4764948,13.2449485 C21.4008247,13.1690722 21.297732,13.1263918 21.1905155,13.1263918 L18.1680412,13.1263918 L18.1680412,11.22 C18.1680412,10.3037113 18.3863918,9.8385567 19.58,9.8385567 L21.3113402,9.83793814 C21.534433,9.83793814 21.7152577,9.65690722 21.7152577,9.43381443 L21.7152577,6.40824742 C21.7152577,6.18536082 21.5346392,6.00453608 21.3117526,6.00412371 Z"/>
</svg>
