<svg xmlns="http://www.w3.org/2000/svg" width="30" height="30" viewBox="0 0 30 30">
  <path d="M14.5189259,6 C10.9243708,6 8,8.92437075 8,12.5188908 C8,16.9798024 13.8338001,23.5286815 14.0821793,23.8052912 C14.3154764,24.0651314 14.7227973,24.0646744 14.9556725,23.8052912 C15.2040517,23.5286815 21.0378518,16.9798024 21.0378518,12.5188908 C21.0377815,8.92437075 18.1134459,6 14.5189259,6 Z M14.5189259,15.7987268 C12.7104159,15.7987268 11.239125,14.3274008 11.239125,12.5188908 C11.239125,10.7103807 12.7104511,9.23908988 14.5189259,9.23908988 C16.3274008,9.23908988 17.7986916,10.7104159 17.7986916,12.5189259 C17.7986916,14.3274359 16.3274008,15.7987268 14.5189259,15.7987268 Z"/>
</svg>
