<?xml version="1.0" encoding="UTF-8"?>
<svg width="40px" height="40px" viewBox="0 0 40 40" version="1.1" xmlns="http://www.w3.org/2000/svg" xmlns:xlink="http://www.w3.org/1999/xlink">
    <!-- Generator: Sketch 48.2 (47327) - http://www.bohemiancoding.com/sketch -->
    <title>Soc/ins</title>
    <desc>Created with Sketch.</desc>
    <defs>
        <path d="M10.1364233,0 L3.86341106,0 C1.73312749,0 0,1.7332103 0,3.86349387 L0,10.1365061 C0,12.2668725 1.73312749,14 3.86341106,14 L10.1364233,14 C12.2668725,14 14,12.2667897 14,10.1365061 L14,3.86349387 C14.0000828,1.7332103 12.2668725,0 10.1364233,0 Z M12.757935,10.1365061 C12.757935,11.5819522 11.5819522,12.7578521 10.1365061,12.7578521 L3.86341106,12.7578521 C2.41804782,12.757935 1.24214785,11.5819522 1.24214785,10.1365061 L1.24214785,3.86349387 C1.24214785,2.41813063 2.41804782,1.24214785 3.86341106,1.24214785 L10.1364233,1.24214785 C11.5818694,1.24214785 12.7578521,2.41813063 12.7578521,3.86349387 L12.7578521,10.1365061 L12.757935,10.1365061 Z" id="path-1"></path>
        <path d="M4,0.5 C5.92992907,0.5 7.5,2.07010697 7.5,4.00008035 C7.5,5.92997337 5.92992907,7.5 4,7.5 C2.07007093,7.5 0.5,5.92997337 0.5,4.00008035 C0.5,2.07010697 2.07007093,0.5 4,0.5 Z M4,6.29474083 C5.26532837,6.29474083 6.29484884,5.26535742 6.29484884,4 C6.29484884,2.73456223 5.26540872,1.70509848 4,1.70509848 C2.73459128,1.70509848 1.70515116,2.73456223 1.70515116,4 C1.70515116,5.26535742 2.73467163,6.29474083 4,6.29474083 Z" id="path-3"></path>
        <path d="M1.5,0.1875 C1.27011364,0.1875 1.04428409,0.280568182 0.881931818,0.443636364 C0.718784091,0.605909091 0.625,0.831818182 0.625,1.0625 C0.625,1.29246591 0.718863636,1.51829545 0.881931818,1.68136364 C1.04420455,1.84363636 1.27011364,1.9375 1.5,1.9375 C1.73068182,1.9375 1.95579545,1.84363636 2.11886364,1.68136364 C2.28193182,1.51829545 2.375,1.29238636 2.375,1.0625 C2.375,0.831818182 2.28193182,0.605909091 2.11886364,0.443636364 C1.95659091,0.280568182 1.73068182,0.1875 1.5,0.1875 Z" id="path-5"></path>
    </defs>
    <g id="Page-4" stroke="none" stroke-width="1" fill="none" fill-rule="evenodd">
        <g id="Soc/ins">
            <g id="Group-3" transform="translate(13.000000, 13.000000)">
                <mask id="mask-2" fill="white">
                    <use xlink:href="#path-1"></use>
                </mask>
                <use id="Shape" fill="#fff" fill-rule="nonzero" xlink:href="#path-1"></use>
            </g>
            <g id="Group" transform="translate(16.000000, 16.000000)">
                <mask id="mask-4" fill="white">
                    <use xlink:href="#path-3"></use>
                </mask>
                <use id="Shape" fill="#fff" fill-rule="nonzero" xlink:href="#path-3"></use>
            </g>
            <g id="Group-2" transform="translate(22.000000, 15.000000)">
                <mask id="mask-6" fill="white">
                    <use xlink:href="#path-5"></use>
                </mask>
                <use id="Shape" fill="#fff" fill-rule="nonzero" xlink:href="#path-5"></use>
            </g>
        </g>
    </g>
</svg>