<svg xmlns="http://www.w3.org/2000/svg" width="32" height="32" viewBox="0 0 32 32">
  <path fill-rule="evenodd" d="M15.9968651,6 C18.7118254,6 19.0522619,6.01150794 20.1185317,6.06015873 C21.1825794,6.10869048 21.9092857,6.27769841 22.5451587,6.52484127 C23.2025397,6.78027778 23.7600397,7.12210317 24.3158333,7.67785714 C24.8715873,8.23365079 25.2134127,8.79115079 25.4688889,9.44853175 C25.7159921,10.0844048 25.885,10.8111111 25.9335317,11.8751587 C25.9821825,12.9414286 25.9936905,13.2818651 25.9936905,15.9968651 C25.9936905,18.7118254 25.9821825,19.0522619 25.9335317,20.1185317 C25.885,21.1825794 25.7159921,21.9092857 25.4688889,22.5451587 C25.2134127,23.2025397 24.8715873,23.7600397 24.3158333,24.3158333 C23.7600397,24.8715873 23.2025397,25.2134127 22.5451587,25.4688889 C21.9092857,25.7159921 21.1825794,25.885 20.1185317,25.9335317 C19.0522619,25.9821825 18.7118254,25.9936905 15.9968651,25.9936905 C13.2818651,25.9936905 12.9414286,25.9821825 11.8751587,25.9335317 C10.8111111,25.885 10.0844048,25.7159921 9.44853175,25.4688889 C8.79115079,25.2134127 8.23365079,24.8715873 7.67785714,24.3158333 C7.12210317,23.7600397 6.78027778,23.2025397 6.52484127,22.5451587 C6.27769841,21.9092857 6.10869048,21.1825794 6.06015873,20.1185317 C6.01150794,19.0522619 6,18.7118254 6,15.9968651 C6,13.2818651 6.01150794,12.9414286 6.06015873,11.8751587 C6.10869048,10.8111111 6.27769841,10.0844048 6.52484127,9.44853175 C6.78027778,8.79115079 7.12210317,8.23365079 7.67785714,7.67785714 C8.23365079,7.12210317 8.79115079,6.78027778 9.44853175,6.52484127 C10.0844048,6.27769841 10.8111111,6.10869048 11.8751587,6.06015873 C12.9414286,6.01150794 13.2818651,6 15.9968651,6 Z M16.0000202,19.3938597 C14.1221296,19.3938597 12.5998308,17.8715608 12.5998308,15.9937107 C12.5998308,14.1158201 14.1221296,12.5935213 16.0000202,12.5935213 C17.8778704,12.5935213 19.4001692,14.1158201 19.4001692,15.9937107 C19.4001692,17.8715608 17.8778704,19.3938597 16.0000202,19.3938597 Z M16.0000202,10.7555952 C13.1070613,10.7555952 10.7619048,13.1007518 10.7619048,15.9937107 C10.7619048,18.8866292 13.1070613,21.2317857 16.0000202,21.2317857 C18.8929387,21.2317857 21.2380952,18.8866292 21.2380952,15.9937107 C21.2380952,13.1007518 18.8929387,10.7555952 16.0000202,10.7555952 Z M22.6666667,10.5175197 C22.6666667,9.86003171 22.1336588,9.32702381 21.4761708,9.32702381 C20.8187222,9.32702381 20.2857143,9.86003171 20.2857143,10.5175197 C20.2857143,11.1750077 20.8187222,11.7079762 21.4761708,11.7079762 C22.1336588,11.7079762 22.6666667,11.1750077 22.6666667,10.5175197 Z"/>
</svg>
