<svg xmlns="http://www.w3.org/2000/svg" width="32" height="32" viewBox="0 0 32 32">
  <path fill="#ffffff" d="M24.9686221,17.5281211 L24.9686221,24.1697829 L21.115833,24.1697829 L21.115833,17.9698539 C21.115833,16.4110689 20.5603132,15.3516618 19.1662338,15.3516618 C18.1001002,15.3516618 17.47119,16.0689186 17.1904426,16.7591942 C17.089357,17.0077745 17.0586555,17.3558998 17.0586555,17.6995532 L17.0586555,24.1689937 L13.2096618,24.1689937 C13.2096618,24.1689937 13.2613319,13.6723257 13.2096618,12.5852234 L17.0594447,12.5852234 L17.0594447,14.2270939 C17.0542213,14.2405846 17.0429854,14.2517829 17.0377244,14.2667766 L17.0594447,14.2667766 L17.0594447,14.2270939 C17.5737787,13.4379875 18.4849395,12.3134196 20.5311148,12.3134196 C23.0706931,12.3134572 24.9686221,13.9688184 24.9686221,17.5281211 Z M9.17942797,7 C7.86249687,7 7,7.864 7,9.00352401 C7,10.1123466 7.83705637,11.0055449 9.13001253,11.0055449 L9.15323591,11.0055449 C10.4993653,11.0055449 11.3334154,10.1123466 11.3334154,9.00352401 C11.3072234,7.864 10.4994029,7 9.17942797,7 Z M7.22986639,24.1697453 L11.0804008,24.1697453 L11.0804008,12.5845094 L7.22986639,12.5845094 L7.22986639,24.1697453 Z"/>
</svg>
