<?xml version="1.0" encoding="UTF-8"?>
<svg width="40px" height="40px" viewBox="0 0 40 40" version="1.1" xmlns="http://www.w3.org/2000/svg" xmlns:xlink="http://www.w3.org/1999/xlink">
    <!-- Generator: Sketch 48.2 (47327) - http://www.bohemiancoding.com/sketch -->
    <title>Soc/linkedin</title>
    <desc>Created with Sketch.</desc>
    <defs>
        <path d="M17.7231182,18 C17.8760677,18 18,18.0853245 18,18.1905415 L18,25.8094585 C18,25.9147136 17.8760677,26 17.7231182,26 L14.2768818,26 C14.1239323,26 14,25.9147136 14,25.8094585 L14,18.1905415 C14,18.0853245 14.1239323,18 14.2768818,18 L17.7231182,18 Z M16.0008039,13 C17.1031803,13 18.0000487,13.8970131 18,14.9995857 C18,16.1025969 17.1031803,17 16.0008039,17 C14.8975505,17 14,16.1026457 14,14.9995857 C14,13.8970131 14.8975505,13 16.0008039,13 Z M23.8778554,17 C26.6290525,17 27,19.1220346 27,21.1978334 L27,25.7905983 C27,25.9062718 26.9121595,26 26.8037523,26 L24.3655703,26 C24.257163,26 24.1693226,25.9062718 24.1693226,25.7905983 L24.1693226,21.7196624 C24.1693226,20.5798472 24.0903917,19.7079824 23.0971426,19.7079824 C22.1851401,19.7079824 21.8297747,20.2518404 21.8297747,21.6478376 L21.8297747,25.7905565 C21.8297747,25.9062299 21.7419342,25.9999581 21.633527,25.9999581 L19.1962477,25.9999581 C19.0878405,25.9999581 19,25.9062299 19,25.7905565 L19,17.417505 C19,17.3018734 19.0878405,17.2081034 19.1962477,17.2081034 L21.5354816,17.2081034 C21.6438888,17.2081034 21.7317293,17.3018734 21.7317293,17.417505 L21.7317293,17.9613212 C22.171599,17.4500042 22.8968129,17 23.8778554,17 Z" id="path-1"></path>
    </defs>
    <g id="Page-4" stroke="none" stroke-width="1" fill="none" fill-rule="evenodd">
        <g id="Soc/linkedin">
            <mask id="mask-2" fill="white">
                <use xlink:href="#path-1"></use>
            </mask>
            <use id="Combined-Shape" fill="#000000" fill-rule="nonzero" xlink:href="#path-1"></use>
        </g>
    </g>
</svg>