<svg xmlns="http://www.w3.org/2000/svg" width="32" height="32" viewBox="0 0 32 32">
  <path d="M15.6265761,7 C11.972859,7 9,9.97285901 9,13.6269445 C9,14.580072 9.19508351,15.4900933 9.57953987,16.3319551 C11.2363681,19.9574873 14.4129687,23.7852874 15.3473064,24.8719707 C15.417308,24.9532094 15.519363,25 15.6267603,25 C15.7341575,25 15.8362125,24.9532094 15.9062142,24.8719707 C16.8401834,23.7854716 20.016784,19.9578557 21.6741649,16.3319551 C22.0588055,15.4900933 22.2537048,14.580072 22.2537048,13.6269445 C22.2533363,9.97285901 19.2804773,7 15.6265761,7 Z M15.6265761,17.0689987 C13.7286106,17.0689987 12.1843376,15.5247257 12.1843376,13.6267603 C12.1843376,11.7286106 13.7286106,10.1843376 15.6265761,10.1843376 C17.5245415,10.1843376 19.0688145,11.7286106 19.0688145,13.6267603 C19.0689987,15.5247257 17.5247257,17.0689987 15.6265761,17.0689987 Z"/>
</svg>
