<svg xmlns="http://www.w3.org/2000/svg" width="76" height="31" viewBox="0 0 76 31">
  <path fill="#ffffff" fill-rule="evenodd" d="M47.9996813,31 C39.1765657,31 32,24.0465651 32,15.4995678 C32,6.95331142 39.1765657,0 47.9996813,0 C56.8213946,0 64,6.95331142 64,15.4995678 C64,24.0465651 56.8213946,31 47.9996813,31 Z M47.9754598,6.47316801 C42.8503249,6.47316801 38.6806631,10.5121522 38.6806631,15.4775859 C38.6806631,20.4426491 42.8503249,24.4820038 47.9754598,24.4820038 C53.1016146,24.4820038 57.2714039,20.4426491 57.2714039,15.4775859 C57.2714039,10.5121522 53.1016146,6.47316801 47.9754598,6.47316801 Z M72.8118825,31 L72.1887825,31 C70.4349255,31 69.0222108,29.5373527 69.0222108,28.326746 L69,2.67362324 C69,1.47015435 70.4713672,0 72.1887825,0 L72.8118825,0 C74.5650745,0 75.9765922,1.46252422 75.9765922,2.67362324 L76,28.326746 C76,29.5294765 74.5286328,31 72.8118825,31 Z M27.1292476,26.0657756 L27.0395488,25.9838679 L27.1368682,26.0736822 C24.1818068,29.2047033 20.0040691,31 15.6741683,31 C7.03160694,31 0,24.0469934 0,15.5004324 C0,6.95337725 7.03160694,0 15.6741683,0 C19.7964377,0 23.6894632,1.5698345 26.6361543,4.42029419 L26.5766883,4.48082924 L26.6361543,4.42029419 C27.1562322,4.93163006 27.7633852,5.87684166 27.7633852,6.86096864 C27.7633852,8.64934703 26.2918511,10.1041649 24.4823851,10.1041649 C23.7183217,10.1041649 22.9816176,9.83867548 22.394828,9.35983087 L22.392954,9.36131336 C22.3879569,9.35624818 22.3839592,9.35217133 22.3788371,9.34760032 C22.3645952,9.33611101 22.3504783,9.32523941 22.3358617,9.31399719 L22.3393597,9.30893201 C20.6119717,7.58590677 18.0741719,6.51703071 15.6952813,6.51703071 C10.6987614,6.51703071 6.63246002,10.5369288 6.63246002,15.4794304 C6.63246002,20.4211909 10.6987614,24.4418302 15.6952813,24.4418302 C18.5452777,24.4418302 21.2662229,22.7276999 22.7313856,21.2592925 L22.7908517,21.3184686 L22.7347587,21.2549685 C23.2825707,20.786872 23.8357546,20.6051433 24.7081311,20.6051433 C26.5238435,20.6051433 28,22.0649028 28,23.8598289 C28,24.6795229 27.6911765,25.463143 27.1292476,26.0657756 Z"/>
</svg>
