<svg xmlns="http://www.w3.org/2000/svg" width="30" height="30" viewBox="0 0 30 30">
  <path fill="#0BBD20" d="M20.7451579,19.9959456 L9.24958258,19.9959456 C8.93502722,19.9959456 8.6622686,19.8920762 8.43056987,19.68698 L12.3962795,15.7208131 C12.4954737,15.7920327 12.5872232,15.8585771 12.6699528,15.9192269 C12.966824,16.1378657 13.2075172,16.3084319 13.3924138,16.4306715 C13.5771325,16.5531906 13.8231361,16.6780726 14.1303993,16.8055717 C14.4376624,16.9332486 14.7239383,16.9968457 14.9895318,16.9968457 L14.9973067,16.9968457 L15.0050817,16.9968457 C15.2706497,16.9968457 15.5569256,16.9332232 15.8642142,16.8055717 C16.1712995,16.6780726 16.4173031,16.5531906 16.6021996,16.4306715 C16.7871216,16.3084319 17.0279419,16.1378403 17.3246606,15.9192269 C17.4117604,15.8562396 17.5039673,15.79 17.5990962,15.7218802 L21.5640436,19.68698 C21.3323194,19.8920762 21.0597387,19.9959456 20.7451579,19.9959456 Z M8.78885299,13.2250526 C9.89475136,13.9765808 10.7955535,14.5953249 11.4946897,15.0834192 L8,18.5781089 L8,12.5455318 C8.22905626,12.8007078 8.49215971,13.0272486 8.78885299,13.2250526 Z M21.2138403,13.2250526 C21.5105336,13.0219637 21.7708167,12.7955753 21.9947913,12.5455318 L21.9947913,18.5782613 L18.5014991,15.0848167 C19.2460399,14.5648348 20.1501198,13.9450236 21.2138403,13.2250526 Z M20.7451579,9 C21.0835717,9 21.3765045,9.12236661 21.6238802,9.36697278 C21.8709764,9.61188385 21.9947913,9.90593466 21.9947913,10.2495826 C21.9947913,10.6608929 21.8670889,11.0539855 21.6123702,11.4287332 C21.3571942,11.8034809 21.0396915,12.123804 20.6596588,12.389245 C19.3960508,13.266265 18.4425263,13.9283811 17.7950708,14.3782359 C17.4392523,14.6253067 17.1745989,14.8092886 17.0047695,14.9274628 C16.9795898,14.9451724 16.9402577,14.973147 16.8879927,15.0106497 C16.8317132,15.050922 16.7604936,15.1022468 16.6728094,15.1656915 C16.5035898,15.2880835 16.3630309,15.3869728 16.2510817,15.4625372 C16.1389292,15.5379492 16.0036552,15.622559 15.8449038,15.7163158 C15.686,15.810098 15.5363702,15.8803521 15.3958367,15.9271797 C15.2552269,15.9739819 15.1250599,15.9974592 15.0053612,15.9974592 L14.9975862,15.9974592 L14.9898113,15.9974592 C14.8700871,15.9974592 14.7399456,15.9739819 14.5993612,15.9271797 C14.4588022,15.8803521 14.3090454,15.8099456 14.1502686,15.7163158 C13.9913648,15.622559 13.8559129,15.538127 13.7441162,15.4625372 C13.632167,15.3869728 13.491608,15.2880581 13.3224138,15.1656915 C13.2345517,15.1022468 13.1633321,15.0509474 13.1070526,15.0105227 C13.0548131,14.9731724 13.0154555,14.94502 12.9904283,14.9274628 C12.7724247,14.7741488 12.5083811,14.5894047 12.2022105,14.3760762 C11.8430127,14.1255499 11.42502,13.8352341 10.9443702,13.5021561 C10.0539855,12.8852922 9.52030853,12.5142795 9.34333938,12.389245 C9.02052632,12.1706062 8.71590563,11.8700254 8.42962976,11.4873503 C8.1433539,11.1045227 8.00015245,10.7491869 8.00015245,10.4212414 C8.00015245,10.0152414 8.10806171,9.67670054 8.32423593,9.406 C8.5402323,9.1354265 8.84856261,9 9.24960799,9 L20.7451579,9 Z"/>
</svg>
