<svg xmlns="http://www.w3.org/2000/svg" width="32" height="32" viewBox="0 0 32 32">
  <path fill="#ffffff" d="M24.214145,23.0008224 L7.78578237,23.0008224 C7.33625033,23.0008224 6.94645013,22.8591224 6.61532875,22.5793274 L12.2827368,17.168627 C12.4244955,17.2657858 12.5556151,17.3565667 12.6738442,17.4393059 C13.0981037,17.737576 13.4420792,17.9702649 13.7063154,18.1370258 C13.9702975,18.304168 14.321862,18.4745338 14.7609728,18.6484699 C15.2000835,18.8226485 15.6092012,18.9094086 15.9887617,18.9094086 L15.9998729,18.9094086 L16.0109841,18.9094086 C16.3905083,18.9094086 16.799626,18.8226139 17.238773,18.6484699 C17.6776296,18.4745338 18.0291942,18.304168 18.2934304,18.1370258 C18.557703,17.9702649 18.90186,17.7375414 19.3259017,17.4393059 C19.4503763,17.3533777 19.5821494,17.2630128 19.7180984,17.1700828 L25.3844171,22.5793274 C25.0532594,22.8591224 24.6637134,23.0008224 24.214145,23.0008224 Z M7.12735228,13.7638758 C8.7077951,14.7891209 9.99513431,15.6332203 10.9942719,16.2990854 L6,21.0665899 L6,12.8368639 C6.32734502,13.1849786 6.70334698,13.4940288 7.12735228,13.7638758 Z M24.8839405,13.7638758 C25.3079458,13.486819 25.6799172,13.1779768 26,12.8368639 L26,21.0667978 L21.0077252,16.3009919 C22.0717508,15.5916254 23.3637742,14.7460702 24.8839405,13.7638758 Z M24.214145,8 C24.6977732,8 25.1164045,8.16693423 25.4699298,8.50062939 C25.8230558,8.83474049 26,9.23588872 26,9.704698 C26,10.2658133 25.8175002,10.8020757 25.4534809,11.3133118 C25.088808,11.8245478 24.6350639,12.261537 24.091958,12.6236554 C22.2861319,13.8200982 20.923447,14.7233663 19.9981663,15.3370645 C19.4896649,15.674122 19.111448,15.9251126 18.8687443,16.0863275 C18.8327599,16.1104872 18.7765503,16.1486505 18.7018582,16.1998123 C18.621429,16.2547522 18.5196489,16.3247703 18.3943391,16.4113224 C18.1525068,16.5782913 17.9516335,16.7131974 17.7916466,16.8162835 C17.6313692,16.9191615 17.4380486,17.0345874 17.2111766,17.1624918 C16.9840866,17.2904308 16.7702503,17.3862724 16.5694133,17.4501552 C16.3684674,17.5140034 16.1824454,17.5460315 16.0113835,17.5460315 L16.0002723,17.5460315 L15.9891611,17.5460315 C15.818063,17.5460315 15.6320773,17.5140034 15.4311677,17.4501552 C15.2302944,17.3862724 15.0162765,17.2902228 14.7893681,17.1624918 C14.5622782,17.0345874 14.3687034,16.9194042 14.2089344,16.8162835 C14.0489474,16.7131974 13.8480741,16.5782566 13.6062782,16.4113224 C13.4807142,16.3247703 13.3789341,16.2547869 13.2985049,16.199639 C13.2238492,16.1486852 13.1676032,16.1102792 13.1318367,16.0863275 C12.820287,15.8771744 12.4429416,15.6251439 12.0053922,15.3341182 C11.4920615,14.9923467 10.8947067,14.5962939 10.2078087,14.1419042 C8.93535707,13.3003699 8.17267767,12.7942291 7.91977051,12.6236554 C7.45843735,12.3253852 7.02310297,11.9153287 6.61398524,11.393278 C6.20486751,10.8710192 6.00021787,10.3862652 6.00021787,9.93887733 C6.00021787,9.38500646 6.15443132,8.92316433 6.46336659,8.55387087 C6.77204768,8.18475072 7.21268348,8 7.78581868,8 L24.214145,8 Z"/>
</svg>
