<svg xmlns="http://www.w3.org/2000/svg" width="30" height="30" viewBox="0 0 30 30">
  <path d="M21.125,9 C21.65,9 22,9.3 22,9.75 L22,11.25 C22,11.7 21.65,12 21.125,12 L8.875,12 C8.35,12 8,11.7 8,11.25 L8,9.75 C8,9.3 8.35,9 8.875,9 L21.125,9 Z M21.125,14 C21.65,14 22,14.3 22,14.75 L22,16.25 C22,16.7 21.65,17 21.125,17 L8.875,17 C8.35,17 8,16.7 8,16.25 L8,14.75 C8,14.3 8.35,14 8.875,14 L21.125,14 Z M21.125,19 C21.65,19 22,19.3 22,19.75 L22,21.25 C22,21.7 21.65,22 21.125,22 L8.875,22 C8.35,22 8,21.7 8,21.25 L8,19.75 C8,19.3 8.35,19 8.875,19 L21.125,19 Z"/>
</svg>
