<?xml version="1.0" encoding="UTF-8"?>
<svg width="83px" height="83px" viewBox="0 0 83 83" version="1.1" xmlns="http://www.w3.org/2000/svg" xmlns:xlink="http://www.w3.org/1999/xlink">
    <!-- Generator: Sketch 48.2 (47327) - http://www.bohemiancoding.com/sketch -->
    <title>Old</title>
    <desc>Created with Sketch.</desc>
    <defs></defs>
    <g id="Desctop" stroke="none" stroke-width="1" fill="none" fill-rule="evenodd">
        <g id="Old" fill="#000000">
            <path d="M10.0275996,23.8764414 C10.0275996,22.832457 10.0209531,21.8722832 10.0303555,20.9121094 C10.0352188,20.419459 9.80356445,20.5269375 9.54046094,20.7013672 C8.96805273,21.080541 8.55856445,21.5916719 8.63637695,22.300252 C8.72148438,23.0731895 9.18138867,23.5953438 10.0275996,23.8764414 M37.026916,22.1814258 C37.026916,22.584916 37.0419922,22.9888926 37.0228633,23.3914102 C37.0024375,23.8286191 37.1206152,23.920373 37.5161621,23.6820723 C38.6334199,23.0091563 38.7183652,21.5603848 37.6625469,20.7937695 C37.5150273,20.6867773 37.3018535,20.5366641 37.166168,20.5747598 C36.8943105,20.6511133 37.0466934,20.9391816 37.0335625,21.1332266 C37.0098945,21.4812754 37.026916,21.831918 37.026916,22.1814258 M25.2162754,46.4837285 C25.7377813,46.9728125 26.2361055,47.4267188 26.7172461,47.8981328 C26.9119395,48.0887734 27.0344941,48.2210547 27.2682559,47.9154785 C28.2652285,46.6111465 29.2858691,45.3249707 30.3165605,44.0081563 C29.8568184,43.7876875 29.435334,43.609043 29.038166,43.3869531 C28.7797637,43.2423516 28.6066309,43.2773672 28.3996172,43.4754648 C27.3682773,44.4622246 26.3260762,45.4373125 25.2162754,46.4837285 M53.9773965,45.4011621 C57.2855625,48.479457 63.2594551,47.9526016 65.9650605,44.3023848 C65.6447324,44.2203574 65.3436953,44.142707 65.042334,44.0658672 C63.7812852,43.7442422 63.3204082,43.2643984 63.1602441,41.9751426 C63.0840527,41.3625313 63.0928066,40.7358164 63.1095039,40.1165586 C63.1215,39.6752969 63.0469297,39.4494785 62.5340156,39.6034824 C61.3853086,39.9482891 60.1869961,39.9223516 59.0076504,40.038584 C58.067416,39.8318945 57.084709,39.8873359 56.1611719,39.5708984 C55.8505703,39.4645547 55.7345,39.5987813 55.7458477,39.9252695 C55.7664355,40.5153477 55.7721094,41.1073711 55.7505488,41.6972871 C55.7014297,43.0364727 55.1651719,43.6943125 53.8772129,44.0379844 C53.5526699,44.1243887 53.228127,44.2109551 52.8243125,44.3184336 C53.2171035,44.7498066 53.527543,45.1453535 53.9773965,45.4011621 M12.4902031,25.1264668 C12.4641035,26.1030137 12.3577598,27.0836133 12.6380469,28.0445977 C13.0225703,31.1136523 14.4165488,33.5835508 16.9801465,35.3591348 C17.6130215,35.9221406 18.3259785,36.3483262 19.1302031,36.6188867 C25.085291,39.4026289 32.5432949,35.8572969 34.196,29.4329023 C34.8908008,26.7321602 34.5495605,23.9725723 34.5528027,21.2342207 C34.9151172,20.0675195 34.2537109,19.3903887 33.3932344,18.808416 C33.0224902,18.2825332 32.6438027,17.7683223 32.375998,17.1709492 C31.9960137,16.3234414 31.8210977,15.4318398 31.6670938,14.5295391 C31.6166777,14.2346621 31.603709,13.9034727 31.1538555,13.9877695 C29.4818594,14.3012891 27.7819805,14.3658086 26.096043,14.554666 C25.0700527,14.5723359 24.0442246,14.5900059 23.0183965,14.6076758 C20.7311953,14.5404004 18.4592324,14.2933457 16.192457,14.0012246 C15.5036543,13.9123887 15.2768633,14.2100215 15.2353633,14.842248 C15.1116738,16.7322813 14.3729414,18.3173867 12.8296602,19.4717676 C12.5722305,19.6643535 12.4433535,19.8665039 12.4491895,20.2054746 C12.4773965,21.8455352 12.4791797,23.486082 12.4902031,25.1264668 M33.921873,7.11400781 C33.4671563,6.54500391 32.9670488,6.02430859 32.3409824,5.63913672 C29.8433633,3.51080273 26.9466309,2.49145898 23.6729941,2.51917969 C22.4654414,2.50766992 21.2656699,2.56392188 20.1009141,2.92704688 C17.0294277,3.59088477 14.5956797,5.28525195 12.5958984,7.64086328 C11.2383945,9.23991016 10.265252,11.0501855 9.86014063,13.1334531 C9.47740039,14.2926973 9.3564668,15.4842012 9.42276953,16.6985625 C9.41158398,17.0185664 9.39213086,17.3385703 9.3927793,17.6585742 C9.39310352,17.7976641 9.35241406,18.0653066 9.58179883,17.9892773 C10.226832,17.775293 10.9563242,17.9524785 11.5452676,17.432918 C12.6607422,16.4490762 12.796752,15.1329102 12.924332,13.795832 C13.2545488,12.7265586 13.9569688,12.0161953 15.0038711,11.6375078 C15.4566426,11.588875 15.9022813,11.51625 16.3665625,11.5882266 C18.685375,11.9472988 21.0246133,12.0756895 23.3666074,12.1303203 C24.2770137,12.1517188 25.1966602,12.2045664 26.1000957,12.0016055 C27.2463711,12.0226797 28.3832441,11.9429219 29.5032578,11.6819258 C29.850334,11.6619863 30.200166,11.6631211 30.544,11.6187031 C32.6514219,11.3466836 34.0066563,12.4274668 34.2130215,14.5412109 C34.3023438,15.4540488 34.479043,16.340625 35.1718984,17.0237539 C35.6600098,17.8887695 36.5754414,17.7929629 37.3577813,17.9840898 C37.7147461,18.0713047 37.6596289,17.7751309 37.6570352,17.5750879 C37.646498,16.7399004 37.692375,15.9017949 37.5464766,15.0722813 C37.2160977,12.0197617 36.0954355,9.327125 33.921873,7.11400781 M62.5996699,37.0572305 C63.0062402,36.9200859 63.4259414,36.8126074 63.8174355,36.6409336 C67.009207,35.2412813 69.0970137,32.8688105 70.0576738,29.5126602 C70.4601914,28.3516328 70.578207,27.1562383 70.492127,25.936041 C70.5037988,25.344666 70.496666,24.7521563 70.533627,24.1624023 C70.5582676,23.7704219 70.4041016,23.6712109 70.0307637,23.6496504 C67.4084824,23.4987266 64.8803867,22.9068652 62.4314004,21.9658203 C61.7811797,21.6589473 61.1311211,21.3519121 60.4809004,21.044877 C58.2982598,19.7888535 56.2730273,18.3318145 54.6060566,16.4216797 C54.4152539,16.2031563 54.2640059,16.1114023 54.0274883,16.3754785 C53.3184219,17.1668965 52.3777012,17.6606816 51.5348945,18.2802637 C51.021332,18.4979766 50.5136055,18.731252 49.9929102,18.9304844 C48.2414805,19.6006445 48.2395352,19.5961055 48.3969434,21.4918125 C48.3990508,21.5174258 48.4138027,21.5422285 48.4227188,21.5673555 C48.3299922,23.4496074 48.3368008,25.3305625 48.436498,27.2131387 C48.5264688,28.9094512 48.9534648,30.4913145 49.880082,31.9256582 C50.1213008,32.5658281 50.5293301,33.093332 50.9965293,33.580957 C53.0228965,36.0573398 55.6581465,37.3141738 58.8317617,37.4929805 C60.1240977,37.662709 61.3700703,37.4307305 62.5996699,37.0572305 M45.8686855,64.883791 C43.9741133,64.6655918 42.0788926,64.4517695 40.185293,64.2246543 C39.8704766,64.1868828 39.7038281,64.2173594 39.6654082,64.600748 C39.4305117,66.9524688 39.1695156,69.3015957 38.9171113,71.6516953 C38.720959,72.7775449 38.5787891,73.9092305 38.5466914,75.0529121 C38.3560508,75.7308535 38.2999609,76.4344082 38.3197383,77.1246699 C38.3847441,79.3891758 39.5415566,80.5095137 41.8117363,80.5586328 C42.780502,80.5795449 43.7505645,80.548582 44.7193301,80.5714395 C45.0920195,80.5801934 45.223166,80.4790371 45.240998,80.084625 C45.4160762,76.1862188 45.6127148,72.2889473 45.8033555,68.3911895 C45.8305898,67.9393906 45.9012695,67.4848359 45.8750078,67.0361172 C45.8331836,66.3171621 46.1561055,65.5990176 45.8686855,64.883791 M4.36625391,80.2694297 C5.90402344,80.8488086 7.5029082,80.4394824 9.06985742,80.5511758 C9.39375195,80.5741953 9.3219375,80.2481934 9.33133984,80.0598223 C9.40931445,78.5009785 9.47205078,76.9414863 9.53948828,75.3823184 C9.59233594,74.3005625 9.64518359,73.2186445 9.69803125,72.1370508 C9.81831641,69.9022109 9.9410332,67.6675332 10.0554824,65.4325313 C10.0692617,65.1637539 10.1948965,64.8533145 9.69316797,64.8137598 C8.24391016,64.6991484 6.79838086,64.5336348 5.35139258,64.3880605 C3.86517383,64.1756973 3.86452539,64.1756973 3.67631641,65.6755332 C3.65670117,65.8313203 3.65102734,65.9887285 3.63886914,66.1453262 C3.28806445,69.2215137 2.93693555,72.2978633 2.58694141,75.3740508 C2.46260352,76.4669922 2.2427832,77.5656074 2.76899023,78.6220742 C3.03420117,79.4303516 3.52312305,80.0215645 4.36625391,80.2694297 M27.0729141,39.579166 C24.809543,40.0144297 22.5466582,40.2028008 20.281666,39.5837051 C20.1370645,39.5441504 19.8833633,39.5041094 19.9023301,39.7218223 C19.9561504,40.339459 19.6038867,41.0342598 20.1618672,41.5633848 C21.0599531,42.4151074 21.980248,43.2431621 22.8913027,44.0811055 C23.2823105,44.7284082 23.6511094,44.7104141 24.1682383,44.1538926 C24.8818438,43.3863047 25.6448926,42.6525977 26.4603027,41.9954063 C27.1285176,41.4567168 27.3679531,40.8479961 27.1841211,40.0379355 L27.1880117,39.7155 C27.2154082,39.6145059 27.2040605,39.5464199 27.0729141,39.579166 M63.7130371,50.3563594 C64.0453613,50.5330586 64.3668242,50.7350469 64.711793,50.881918 C66.7407539,51.7462852 67.9411738,51.1968965 68.6479707,49.1111973 C69.0334668,47.9738379 69.0833965,46.7870352 69.1920098,45.6091484 C69.208707,45.4269375 69.347959,45.1755059 69.0394648,45.0591113 C68.7296738,44.9423926 68.5482734,45.070459 68.3667109,45.3199453 C67.450793,46.5790488 66.2656113,47.5470039 64.9776523,48.3992129 C64.1319277,48.7730371 63.2862031,49.1466992 62.3509941,49.559916 C62.8423477,49.8473359 63.2776113,50.1018477 63.7130371,50.3563594 M52.0531582,47.1279512 C51.5065254,46.5091797 50.9477344,45.900459 50.419582,45.2662871 C50.2396406,45.0505195 50.0799629,44.9671953 49.8071328,45.054248 C49.5811523,45.1263867 49.6169785,45.2876855 49.6393496,45.4360156 C49.8171836,46.6161719 49.7132715,47.8431777 50.2197012,48.9693516 C50.6674473,50.8164258 51.7271563,51.5828789 53.3182598,51.1498848 C54.4656699,50.8375 55.4923086,50.265416 56.4983594,49.4869668 C54.7885918,49.0183086 53.3819688,48.1445391 52.0531582,47.1279512 M72.9788848,66.625332 C73.0346504,67.6532676 73.090416,68.6812031 73.1463438,69.7093008 C73.191248,70.7557168 73.2231836,71.8029434 73.2834883,72.8485488 C73.4290625,75.368377 73.5879297,77.8873945 73.7414473,80.4067363 C73.7252363,80.5540938 73.813748,80.5583086 73.9202539,80.5373965 C74.0282188,80.5352891 74.1360215,80.5335059 74.2438242,80.5313984 C75.2805137,80.5318848 76.3173652,80.532209 77.3540547,80.5325332 C79.3006641,80.4650957 80.4244063,79.3278984 80.5205371,77.3284414 C80.4929785,76.4019863 80.4787129,75.4743965 80.262459,74.5654492 C80.1475234,73.3669746 80.0507441,72.1663926 79.9137617,70.9705117 C79.6611953,68.7646895 79.385123,66.5614609 79.1187773,64.3572598 C79.1333672,64.2189805 79.0591211,64.2016348 78.949373,64.2329219 C78.8420566,64.2468633 78.7349023,64.2608047 78.6275859,64.274584 C77.4344609,64.3819004 76.2356621,64.4388008 75.057127,64.6756426 C74.9227383,64.674832 74.7878633,64.6672129 74.6539609,64.6745078 C72.8359043,64.7753398 72.8359043,64.7758262 72.9788848,66.625332 M21.0901055,45.8450176 C20.4948398,45.2630449 19.9073555,44.6729668 19.3026875,44.1010449 C18.3099297,43.1617832 18.3126855,43.18075 17.143877,43.8144355 C16.8065273,43.9972949 16.8123633,44.1297383 17.0320215,44.399002 C17.8304102,45.3781426 18.6117773,46.3710625 19.3996289,47.3586328 C19.9833848,48.2385625 19.9833848,48.2384004 20.6819141,47.5361426 C20.8506699,47.3664141 21.0002969,47.1697754 21.1920723,47.0319824 C21.837916,46.5677012 21.7412988,46.1873926 21.0901055,45.8450176 M78.2988281,83 L56.7382812,83 C56.699375,82.9330488 56.6763555,82.844375 56.6191309,82.8025508 C56.0942207,82.4173789 55.9155762,81.8971699 56.1572812,81.3111445 C56.4020664,80.7173379 56.9331367,80.5474473 57.5528809,80.5597676 C58.2530312,80.5735469 58.9538301,80.545502 59.6543047,80.5356133 C60.7362227,80.5370723 61.8181406,80.5385313 62.9002207,80.5401523 C65.6014492,80.5401523 68.3026777,80.5403145 71.0040684,80.5403145 C71.1089531,80.554418 71.2157832,80.5714395 71.1968164,80.4067363 C71.165043,77.8087715 70.9684043,75.21875 70.8140762,72.6267832 C70.7583105,71.5988477 70.7025449,70.57075 70.6466172,69.5429766 C70.6009023,68.4696504 70.5683184,67.3955137 70.5068789,66.322998 C70.3609805,63.7756113 70.2014648,61.2291973 70.0474609,58.6822969 C70.0518379,58.5242402 70.0641582,58.3660215 70.0592949,58.2084512 C70.0174707,56.8606738 70.4973145,56.4130898 71.8133184,56.5766582 C72.3079141,56.9412422 72.4792637,57.4335684 72.4979062,58.0424512 C72.537623,59.3378672 72.6434805,60.6311758 72.6997324,61.9262676 C72.7159434,62.3009023 72.8138574,62.4453418 73.2248047,62.3913594 C74.3217988,62.2475684 75.4256016,62.1556523 76.5250273,62.0279102 C77.2731621,61.9410195 78.2886152,62.0859453 78.6935645,61.660084 C79.158332,61.1713242 78.6953477,60.188293 78.6108887,59.4260547 C78.3022324,56.637125 77.953373,53.8525723 77.6195898,51.0663984 C77.4814727,50.1893867 77.2071836,49.365709 76.672709,48.6436738 C75.5538301,46.9566016 73.8325527,46.2609902 71.9775352,45.7748242 C71.529627,45.657457 71.6398613,45.9865391 71.6174902,46.1877168 C71.4868301,47.3664141 71.3367168,48.5389512 70.9928828,49.6811738 C69.9151797,53.2613594 67.1092285,54.5840098 63.6823984,53.1011953 C63.0440117,52.8247988 62.4317246,52.4879355 61.8074414,52.1789551 C61.1476562,51.6916543 60.487709,51.2046777 59.8279238,50.7175391 C59.5176465,50.2015449 59.2396289,50.4894512 58.9303242,50.7347227 C57.3408418,51.9944746 55.684084,53.1443164 53.6489629,53.5596406 C51.9665918,53.9029883 50.4247695,53.641668 49.2259707,52.2904863 C48.8905664,51.9124473 48.6321641,51.4663223 48.3384219,51.0514844 C48.0856934,50.2915156 47.8329648,49.5313848 47.5802363,48.771416 C47.5016133,48.2653105 47.4054824,47.7611504 47.3472852,47.2529375 C47.1628047,45.6448125 47.1589141,45.617416 45.5747812,46.1773418 C43.2879043,46.9856191 41.6658379,48.4345527 41.2725605,50.9496797 C41.0563066,52.3331211 40.9047344,53.7262891 40.7239824,55.1152422 C40.5787324,56.3020449 40.3827422,57.4838223 40.370584,58.6840801 C40.2603496,59.5364512 40.1651914,60.3912539 40.0330723,61.2402207 C39.9677422,61.6605703 40.1136406,61.7900957 40.5241016,61.8301367 C42.2382461,61.9971094 43.9504453,62.1859668 45.660375,62.3924941 C46.0927207,62.4448555 46.2014961,62.3127363 46.2130059,61.889793 C46.2489941,60.5710332 46.3180527,59.2527598 46.4034844,57.9362695 C46.4649238,56.9906855 46.9600059,56.4706387 47.7011699,56.5038711 C48.4473594,56.5372656 48.8644668,57.0954082 48.8300996,58.0534746 C48.7848711,59.3174414 48.7218105,60.5809219 48.6665312,61.8445645 C48.6107656,62.9530684 48.555,64.0614102 48.4992344,65.169752 C48.2847637,69.167207 48.0701309,73.1646621 47.8556602,77.1621172 C47.796166,78.0903555 47.7624473,79.0211875 47.6677754,79.9458594 C47.6121719,80.4898984 47.7804414,80.6824844 48.310377,80.5401523 C49.2718477,80.5482578 50.2336426,80.5688457 51.1951133,80.5609023 C51.9205527,80.5549043 52.5317051,80.7022617 52.739043,81.5141055 C52.9368164,82.2893125 52.4321699,82.6613535 51.875,83 L20.75,83 C20.2641582,82.5590625 19.8011738,82.1015898 20.0921602,81.3575078 C20.3982227,80.5745195 21.0721113,80.5612266 21.768209,80.5610645 C24.6704531,80.5605781 27.5725352,80.545502 30.4746172,80.5356133 C31.9533789,80.5467988 33.4323027,80.5539316 34.9110645,80.5725742 C35.1907031,80.5759785 35.3695098,80.5467988 35.343248,80.1899961 C35.2367422,78.7452773 35.1495273,77.2992617 35.0551797,75.8537324 C34.9618047,72.233668 34.7491172,68.6197637 34.5111406,65.0071563 C34.550209,64.028502 34.4599141,63.0569805 34.3490313,62.086918 C34.2969941,60.7119062 34.2334473,59.3373809 34.1972969,57.9620449 C34.173791,57.0676875 34.615377,56.5324023 35.3460039,56.5071133 C36.0759824,56.4818242 36.5537188,56.989875 36.6231016,57.8754785 C36.6568203,58.3050684 36.6769219,58.735793 36.7031836,59.1658691 C36.7383613,59.9987871 36.7550586,60.833002 36.8200645,61.6634883 C36.8396797,61.9118398 36.6263438,62.318248 37.0703613,62.3887656 C37.5908945,62.4714414 37.5035176,62.0052148 37.5378848,61.7257383 C37.6695176,60.6587344 37.7671074,59.5876777 37.8775039,58.517918 C38.0611738,56.9102793 38.2373867,55.3018301 38.430459,53.6953262 C38.6360137,51.9855586 38.7237148,50.252123 39.3880391,48.6285977 C39.8753398,47.4379043 39.8767988,47.4370938 38.7590547,46.79125 C38.5517168,46.6714512 38.3618867,46.5054512 38.1012148,46.5069102 C37.462666,46.109418 36.7513301,45.930125 36.0192441,45.8134062 C35.1112695,45.5695938 34.1977832,45.3439375 33.2974277,45.0743496 C32.8503301,44.9404473 32.5757168,45.0360918 32.2868379,45.4194805 C31.2323164,46.819457 30.1458594,48.1957656 29.0547012,49.5676973 C27.990291,50.9060723 26.5074766,51.0114434 25.2655566,49.8663027 C25.137166,49.7479629 25.0567598,49.5500273 24.7558848,49.5445156 C24.7558848,49.8116719 24.7560469,50.0708848 24.7558848,50.3302598 C24.7557227,51.8955879 24.7750137,53.4612402 24.7474551,55.026082 C24.7315684,55.9306523 24.2557773,56.4289766 23.5159102,56.425248 C22.7698828,56.4215195 22.337375,55.9293555 22.3257031,55.00825 C22.309168,53.6859238 22.332998,52.3632734 22.3148418,51.0411094 C22.3080332,50.5473242 22.412918,50.0397598 22.1997441,49.4242305 C21.4246992,50.4563809 20.4468555,50.7736289 19.291502,50.5881758 C18.6177754,50.3096719 18.1556016,49.7760078 17.6830527,49.2548262 C16.6671133,47.9325 15.6390156,46.6190898 14.6444746,45.280877 C14.4144414,44.9710859 14.1881367,44.9822715 13.8830469,45.0662441 C12.5098184,45.4442832 11.1104902,45.7184102 9.75460742,46.1698848 C7.22002734,47.0139883 5.72229883,48.6921445 5.30827148,51.3671113 C4.82988672,54.4585371 4.58266992,57.5746035 4.22489453,60.6785117 C4.09277539,61.8241387 4.13006055,61.8285156 5.34717773,61.8837949 C6.20716797,61.9650117 7.0671582,62.0462285 7.92698633,62.1274453 C8.56196875,62.2148223 9.19938281,62.2884199 9.83112305,62.3942773 C10.2449883,62.4636602 10.3437129,62.2757754 10.3433887,61.9108672 C10.3427402,61.2131484 10.3677051,60.5155918 10.3819707,59.817873 C10.4322246,59.2287676 10.5061465,58.6404727 10.5265723,58.0503945 C10.5494297,57.3862324 10.6930586,56.8013418 11.3983965,56.5708223 C12.1056797,56.3398164 12.5770938,56.7110469 12.9463789,57.27 C12.9266016,58.0508809 12.9201172,58.8324102 12.884291,59.6126426 C12.7421211,62.7089316 12.5905488,65.8047344 12.4423809,68.9008613 C12.2697344,69.9720801 12.2959961,71.053998 12.2749219,72.1331602 C12.1207559,74.8206094 11.9722637,77.5085449 11.8069121,80.1955078 C11.7783809,80.6563848 12.0777969,80.561875 12.3297148,80.5634961 C13.5155449,80.570791 14.701375,80.5727363 15.8872051,80.576627 C16.3856914,80.8663164 16.7533555,81.2432207 16.7484922,81.8686387 C16.7006699,82.4280781 16.2722148,82.697666 15.8867188,83 L4.37695312,83 C4.30513867,82.7354375 4.0532207,82.7477578 3.8646875,82.6910195 C2.17729102,82.1824824 1.08386328,81.0501484 0.403652344,79.460666 C0.262130859,79.1296387 0.345779297,78.7075059 0,78.4609375 L0,75.21875 C0.260671875,75.1391543 0.162757812,74.9097695 0.181724609,74.7449043 C0.712794922,70.1215449 1.24386523,65.4981855 1.76002148,60.8732051 C2.04630664,58.3079863 2.30568164,55.7398496 2.57721484,53.1730098 L3.14151758,49.6299473 C3.56689258,48.4035898 4.11498437,47.2556934 5.02733594,46.2948711 C6.12692383,45.1370859 7.47794336,44.3955977 8.92395898,43.7894707 C11.3875352,43.077 13.9540508,42.7474316 16.294748,41.5628984 C17.2083965,41.1005625 17.5123516,40.6249336 17.4859277,39.6388223 C17.4645293,38.8448105 17.2905859,38.3365977 16.5405059,38.0162695 C16.1039453,37.8298438 15.7244473,37.5101641 15.3191738,37.2504648 C13.0574238,35.4625605 11.4570801,33.2116719 10.5683965,30.4627832 C10.3946152,29.6567754 10.2206719,28.8507676 10.0467285,28.0447598 C10.1736602,27.072752 10.0121992,26.432582 8.87435352,26.0303887 C7.30902539,25.4772715 6.39748437,24.190123 6.19517187,22.4834355 C6.07488672,21.4689551 6.5310625,20.6086406 6.92255664,19.730332 C6.92255664,18.6643008 6.92255664,17.5982695 6.92255664,16.5322383 C6.98221289,15.8880156 7.03733008,15.2431445 7.10233594,14.5994082 C7.73780469,8.30534961 12.4937695,2.61077148 18.5704395,0.772126953 C19.5087285,0.488273438 20.523209,0.497027344 21.3984375,0 L25.1269531,0 C25.7650156,0.30346875 26.4747305,0.252890625 27.1437559,0.409001953 C29.7582559,1.01934375 32.0712324,2.24164844 34.2032949,3.8405332 C34.7411738,4.35101563 35.2790527,4.86166016 35.8167695,5.37230469 C37.6298008,7.44698047 38.8778809,9.82188281 39.5929453,12.4799902 C39.7511641,13.3459785 39.9093828,14.2118047 40.0676016,15.0779551 C40.0753828,16.0462344 40.0839746,17.0146758 40.0911074,17.9831172 C40.0982402,18.9693906 39.9959492,19.9551777 40.595916,20.8634766 C40.812332,21.1912617 40.828543,21.6892617 40.8353516,22.1112324 C40.8648555,23.9649531 39.6190449,25.5956113 37.7093965,26.2557207 C37.3623203,26.3756816 36.9623965,26.4089141 36.9880098,26.9448477 C37.0400469,28.0311426 36.7403066,29.0756133 36.5671738,30.1348359 C36.408793,30.560373 36.2586797,30.9893145 36.0905723,31.4112852 C35.0358887,34.0598281 33.3621094,36.253168 30.9241465,37.7158809 C29.8482266,38.3614004 29.4510586,39.050041 29.6989238,40.2052324 C29.6974648,40.4206758 29.696168,40.6362813 29.694709,40.8517246 C29.663584,40.9663359 29.714,41.0172383 29.8261797,41.0196699 C32.3533027,42.6256875 35.2771074,43.0377695 38.095541,43.7669375 C38.7267949,44.0457656 39.3580488,44.3247559 39.9891406,44.6037461 C40.3332988,44.8580957 40.7051777,45.0831035 41.0141582,45.3747383 C41.35475,45.6960391 41.5958066,45.6960391 41.9581211,45.3800879 C42.7377051,44.7005254 43.6605937,44.2484023 44.6420039,43.9313164 C47.3087031,43.069543 50.0493242,42.4887051 52.7640078,41.8091426 C52.9700488,41.7574297 53.3396582,41.8028203 53.2803262,41.4583379 C53.2333145,41.1848594 52.9157422,41.3200586 52.7251016,41.319248 C50.7545,41.3095215 48.7838984,41.2983359 46.8136211,41.3234629 C45.8993242,41.3351348 45.0498711,41.1689727 44.2704492,40.6836172 C43.6922051,40.1459004 43.2639121,39.5151328 43.0674355,38.7410605 C43.0293398,38.1253691 42.9912441,37.5098398 42.9531484,36.8941484 C42.7712617,33.9458652 42.589375,30.9974199 42.4074883,28.0491367 C42.337457,27.0187695 42.2674258,25.9885645 42.1975566,24.9581973 C42.0228027,21.0080781 41.6517344,17.0530957 42.4976211,13.1289141 C42.9755195,11.3622461 43.6434102,9.67630859 44.6267656,8.12475977 C45.2641797,7.48102344 45.9015937,6.837125 46.5391699,6.19322656 C47.3018945,5.80773047 48.0164727,5.32042969 48.8497148,5.08407422 C49.1338926,5.00350586 49.2848164,4.78028125 49.44725,4.5701875 C51.027168,2.52923047 53.1195137,1.31211328 55.5795234,0.608396484 C56.4998184,0.34496875 57.4727988,0.377390625 58.359375,0 L61.7636719,0 C61.7879883,0.0444179688 61.8108457,0.126769531 61.8371074,0.127742188 C64.1497598,0.224197266 66.2218418,1.08969922 68.2422109,2.12233594 C70.5258457,3.52425781 72.4620801,5.30000391 74.0171953,7.48637305 C74.3942617,8.13270313 74.7713281,8.77935742 75.1485566,9.4256875 C75.3464922,9.89531836 75.5497773,10.3626797 75.7413906,10.8349043 C76.4034453,12.4655625 76.7798633,14.1651172 76.9254375,15.91525 C76.9881738,16.6679238 76.5634473,17.2325508 75.9056074,17.3363008 C75.2553867,17.438916 74.7115098,17.0205117 74.5419434,16.2691348 C74.4769375,15.9813906 74.4373828,15.687 74.4018809,15.3937441 C74.2396094,14.0540723 73.9077715,12.7594668 73.3893457,11.5130078 C73.1439121,10.8117227 72.828123,10.1461016 72.3912383,9.54191992 C70.8996699,7.00263867 68.8152676,5.11795508 66.143543,3.88138477 C65.436584,3.44385156 64.6698066,3.15027148 63.8697969,2.93644922 C61.8084141,2.40618945 59.7176895,2.28671484 57.6208047,2.61774219 C55.002252,3.03112109 52.7379082,4.1274668 51.1524785,6.33847656 C50.7848145,6.85122852 50.3711113,7.19149609 49.7709824,7.36219727 C48.0615391,7.84884961 46.8528516,8.97226758 46.0713223,10.5189531 C44.1957168,14.2304473 44.2085234,18.2014785 44.5735937,22.2094707 C44.5706758,23.1317109 44.5515469,24.0547617 44.7426738,24.9648438 C44.6669688,26.2857109 44.8517734,27.5958789 44.9201836,28.9100996 C45.0430625,31.2713848 45.2257598,33.6294277 45.3836543,35.9889297 C45.4755703,36.8717773 45.1570254,37.809418 45.7357559,38.6272598 C45.9477949,38.8989551 46.2509395,38.882582 46.5479238,38.8827441 C48.6251934,38.8832305 50.702625,38.8855 52.7800566,38.8783672 C52.9502715,38.8777187 53.1913281,38.9860078 53.2806504,38.765377 C53.3950996,38.4824961 53.1117324,38.3994961 52.9439492,38.2980156 C51.6251895,37.501248 50.4283359,36.5488555 49.3151309,35.4875254 L47.8485273,33.4909863 C47.087748,32.0059023 46.4410938,30.4890449 46.1535117,28.8219121 C45.8951094,27.3228867 46.0189609,25.814459 45.8938125,24.3149473 C45.9657891,23.3427773 45.9682207,22.3707695 45.8844102,21.3990859 C45.900459,21.0502266 45.9294766,20.7015293 45.930125,20.352832 C45.9338535,18.217041 46.5469512,17.4103848 48.5895293,16.8217656 C49.8473359,16.4594512 50.9746445,15.854459 51.9427617,14.9594531 C52.4731836,14.4689102 52.9817207,13.9414062 53.6826816,13.6797617 C54.4703711,13.5088984 55.1774922,13.7139668 55.8369531,14.1416113 C57.6387988,16.2837246 59.7405469,18.0380723 62.328623,19.1637598 C63.0902129,19.6632187 63.9724121,19.8715293 64.8087344,20.1908848 C66.5339023,20.8206797 68.3294258,21.1210684 70.1508867,21.2110391 C71.4691602,21.2760449 72.3930215,21.8110059 72.8924805,23.0425508 C72.9257129,24.0083984 72.9589453,24.9742461 72.9921777,25.9400938 C73.0100098,29.5933906 71.9029648,32.8287695 69.4165312,35.5492891 C68.4075625,36.6530918 67.2481562,37.5686855 65.9516055,38.3153613 C65.7856055,38.4110059 65.4857031,38.4773086 65.5925332,38.7634316 C65.676668,38.9889258 65.9272891,38.8775566 66.1000977,38.878043 C68.233457,38.8838789 70.3669785,38.8741523 72.5005,38.8807988 C73.1317539,38.8827441 73.5475645,38.6681113 73.5859844,37.9741211 C73.8226641,33.6895703 74.061127,29.4050195 74.2989414,25.1203066 C74.3681621,24.0404961 74.4372207,22.9606855 74.5062793,21.8807129 C74.6121367,21.083459 75.070582,20.6533828 75.866377,20.5747598 C76.622293,20.7748027 76.9576973,21.3018203 77.0120039,22.0475234 C76.6616855,26.1012305 76.4893633,30.1656367 76.2628965,34.2268008 C76.1978906,35.3552441 76.1327227,36.4835254 76.0677168,37.6118066 C75.8164473,40.2562969 74.9194961,41.14725 72.3017539,41.3529668 C70.2045449,41.3391875 68.1073359,41.3231387 66.010127,41.3164922 C65.8454238,41.3160059 65.5763223,41.2210098 65.5601113,41.4974063 C65.5466562,41.7298711 65.8053828,41.7541875 65.9773809,41.794877 C67.6996309,42.202582 69.4239883,42.6015332 71.1478594,43.0030781 C71.271873,43.0457129 71.393293,43.0980742 71.5200625,43.1291992 C74.1541777,43.775043 76.6673594,44.6455703 78.4693672,46.8462051 C78.815957,47.4486035 79.1623848,48.051002 79.5089746,48.6534004 C80.228416,50.6583691 80.2908281,52.7753555 80.575168,54.8553809 C80.7494355,56.1297227 80.7434375,57.4257871 81.0412324,58.6847285 C81.0182129,59.5067852 81.1811328,60.3101992 81.2848828,61.1196113 C81.7100957,65.0206113 82.1174766,68.9237188 82.573166,72.8211523 C82.6795098,73.7305859 82.6260137,74.6729277 83,75.5429688 L83,78.2988281 C82.5477148,79.2979082 82.2761816,80.3715586 81.497084,81.2255508 C80.6153711,82.1917227 79.4522363,82.5681406 78.2988281,83" id="Fill-1"></path>
        </g>
    </g>
</svg>