<svg xmlns="http://www.w3.org/2000/svg" width="30" height="30" viewBox="0 0 30 30">
  <path d="M22.9649353,19.3970149 C22.9196816,19.2606567 22.6317612,19.0597811 22.1013731,18.7948657 C21.9576915,18.7113632 21.7529552,18.5978905 21.4880398,18.4539303 C21.2228856,18.3099701 20.982209,18.1773134 20.7664478,18.0560796 C20.5502488,17.9348856 20.3477015,17.8174726 20.1584478,17.704 C20.128199,17.6812736 20.0335124,17.6150846 19.8744279,17.504995 C19.7151841,17.3952239 19.5808955,17.3137512 19.4708458,17.2606169 C19.3610348,17.207801 19.2530149,17.1812139 19.1469453,17.1812139 C18.9954627,17.1812139 18.8062488,17.2892338 18.5790647,17.504995 C18.3518806,17.7210348 18.1434826,17.9557015 17.9541891,18.2097114 C17.7648557,18.463602 17.5640597,18.6982687 17.3521592,18.9141891 C17.1399403,19.1301891 16.9655721,19.2380896 16.8293731,19.2380896 C16.760995,19.2380896 16.6757413,19.2190249 16.5735721,19.1814129 C16.4714428,19.1435622 16.3937512,19.1111244 16.3404179,19.0849751 C16.2875622,19.0582687 16.1968557,19.0054129 16.0679801,18.9256119 C15.9388657,18.8460498 15.8670647,18.8024677 15.8519403,18.7948657 C14.8141294,18.2189851 13.9240597,17.5598806 13.1815721,16.8177114 C12.4393234,16.0751045 11.7801393,15.1851144 11.2044179,14.1471841 C11.1968557,14.1320199 11.153194,14.0600199 11.0737114,13.9313035 C10.9941095,13.8024677 10.9410547,13.7116816 10.9145473,13.6585075 C10.8880398,13.6055323 10.8558408,13.5278408 10.8180299,13.425592 C10.7802189,13.3233433 10.7612338,13.2381692 10.7612338,13.1699104 C10.7612338,13.0336318 10.8692139,12.8593035 11.0851343,12.6471642 C11.3010149,12.4351443 11.5359204,12.2343085 11.7896119,12.0450547 C12.0435025,11.855801 12.2781692,11.647403 12.4941294,11.4202189 C12.71001,11.1929154 12.8179502,11.0036219 12.8179502,10.8521393 C12.8179502,10.7461493 12.7914428,10.6380896 12.7384677,10.5282786 C12.6854527,10.4182289 12.6040199,10.2839403 12.4941294,10.1247761 C12.384199,9.96569154 12.3179303,9.87108458 12.2951642,9.84063682 C12.1816517,9.65138308 12.0643582,9.44875622 11.943005,9.23283582 C11.8216517,9.01695522 11.689194,8.77631841 11.545194,8.51120398 C11.4013134,8.24620896 11.2877612,8.04159204 11.2043383,7.89767164 C10.9393433,7.36748259 10.7386269,7.07948259 10.6022289,7.03418905 C10.5491741,7.01146269 10.4695721,7 10.3636219,7 C10.1589652,7 9.8919801,7.03781095 9.56246766,7.11367164 C9.23283582,7.18941294 8.97345274,7.26885572 8.7840398,7.35231841 C8.40525373,7.51132338 8.00378109,7.97341294 7.57950249,8.73842786 C7.19315423,9.45038806 7,10.1550647 7,10.8519403 C7,11.0563184 7.01325373,11.2551642 7.03976119,11.4485174 C7.06626866,11.6416716 7.11363184,11.8595025 7.18189055,12.1019701 C7.25002985,12.3443582 7.30499502,12.5244179 7.34654726,12.6416716 C7.3881393,12.759005 7.46579104,12.969194 7.57946269,13.2723184 C7.69297512,13.5753632 7.76123383,13.7608756 7.7839602,13.8290547 C8.04907463,14.5715025 8.36346269,15.2343085 8.72704478,15.8176716 C9.32525373,16.7873035 10.1416119,17.7893731 11.1756418,18.8234826 C12.2097114,19.8575124 13.2115821,20.6738308 14.1812935,21.2722786 C14.7645771,21.6358209 15.4276219,21.9501692 16.1699502,22.2154826 C16.2381692,22.2380896 16.4236816,22.3061891 16.726607,22.4200995 C17.0296517,22.5336915 17.2399204,22.6113433 17.3572537,22.6530149 C17.4746269,22.6947264 17.6547264,22.7497313 17.8969154,22.81799 C18.1396219,22.8862488 18.3572537,22.9336119 18.550408,22.9603184 C18.7436816,22.9864677 18.9425672,22.9999602 19.1469851,22.9999602 C19.8438209,22.9999602 20.5485373,22.8066866 21.2606169,22.4203781 C22.0255522,21.9962587 22.4875224,21.5947065 22.646607,21.2156418 C22.7302687,21.0264279 22.8095124,20.7669652 22.8852537,20.4373333 C22.9612338,20.1078607 22.9989652,19.8409154 22.9989652,19.6362985 C22.999204,19.5299104 22.9877811,19.4505075 22.9649353,19.3970149 Z"/>
</svg>
