<svg xmlns="http://www.w3.org/2000/svg" width="32" height="32" viewBox="0 0 32 32">
  <path fill="#212121" d="M23.6413092,20.655229 L21.1703588,18.1784034 C20.6781912,17.6871017 19.8631522,17.7020287 19.353839,18.2126802 L18.1089636,19.4600999 C18.0303142,19.4166549 17.9489068,19.371275 17.8633165,19.3231307 C17.0771907,18.8865615 16.0012435,18.2881907 14.869033,17.1525854 C13.7334668,16.0145845 13.1358972,14.9345409 12.6989818,14.146127 C12.652877,14.0626002 12.6087028,13.982068 12.5650802,13.9055901 L13.4005745,13.0694466 L13.8113347,12.657249 C14.3214293,12.1458603 14.3354952,11.3292049 13.8444768,10.8364751 L11.3735264,8.35937303 C10.882508,7.86733424 10.0671013,7.88226126 9.55700665,8.39364989 L8.86060819,9.09563445 L8.87963849,9.11456965 C8.64612666,9.41320219 8.45099719,9.75762934 8.30578777,10.1290541 C8.17193217,10.4826034 8.08859419,10.8199816 8.05048764,11.158051 C7.72421462,13.8690557 8.96026442,16.3467106 12.3147445,19.7088375 C16.9516551,24.355932 20.6883959,24.0048706 20.8496018,23.9877322 C21.2006969,23.9456693 21.5371746,23.8615897 21.8791223,23.7284904 C22.2464897,23.5846566 22.5899084,23.3893614 22.887682,23.1558273 L22.902897,23.1693722 L23.6083969,22.4769704 C24.1174343,21.9656739 24.1320977,21.1487421 23.6413092,20.655229 Z"/>
</svg>
