<svg xmlns="http://www.w3.org/2000/svg" width="30" height="30" viewBox="0 0 30 30">
  <path d="M19.9075048,13.9052578 L16.0918344,13.9052578 L16.0918344,10.0927594 C16.0918344,9.48928341 15.60493,9 15.001454,9 C14.397978,9 13.911338,9.48928341 13.911338,10.0930237 L13.911338,13.9079012 L10.0938172,13.9079012 C9.49034118,13.9079012 8.99973609,14.3971846 9.00000043,15.0009249 C8.99973609,15.3025307 9.12159436,15.5790248 9.31905233,15.7764827 C9.51677464,15.9744694 9.78956799,16.0994996 10.0909095,16.0994996 L13.911338,16.0994996 L13.911338,19.9090904 C13.911338,20.2109606 14.0310816,20.4842826 14.2288039,20.6814762 C14.4265262,20.8791985 14.6985265,21.0015855 15.0003967,21.0015855 C15.6036083,21.0015855 16.0918344,20.5123021 16.0918344,19.9090904 L16.0918344,16.0992353 L19.9075048,16.0992353 C20.5109808,16.0992353 21.0002642,15.6057225 20.9999999,15.0022466 C20.9997356,14.3990349 20.5104521,13.9052578 19.9075048,13.9052578 Z"/>
</svg>
