<svg xmlns="http://www.w3.org/2000/svg" width="30" height="30" viewBox="0 0 30 30">
  <path d="M9,8 C9.4,8 9.66666667,8.26666667 9.66666667,8.66666667 L9.66666667,10 C9.66666667,10.4 9.4,10.6666667 9,10.6666667 L7.66666667,10.6666667 C7.26666667,10.6666667 7,10.4 7,10 L7,8.66666667 C7,8.26666667 7.26666667,8 7.66666667,8 L9,8 Z M9,13.3333333 C9.4,13.3333333 9.66666667,13.6 9.66666667,14 L9.66666667,15.3333333 C9.66666667,15.7333333 9.4,16 9,16 L7.66666667,16 C7.26666667,16 7,15.7333333 7,15.3333333 L7,14 C7,13.6 7.26666667,13.3333333 7.66666667,13.3333333 L9,13.3333333 Z M9,18.6666667 C9.4,18.6666667 9.66666667,18.9333333 9.66666667,19.3333333 L9.66666667,20.6666667 C9.66666667,21.0666667 9.4,21.3333333 9,21.3333333 L7.66666667,21.3333333 C7.26666667,21.3333333 7,21.0666667 7,20.6666667 L7,19.3333333 C7,18.9333333 7.26666667,18.6666667 7.66666667,18.6666667 L9,18.6666667 Z M22.3333333,8 C22.7333333,8 23,8.26666667 23,8.66666667 L23,10 C23,10.4 22.7333333,10.6666667 22.3333333,10.6666667 L13,10.6666667 C12.6,10.6666667 12.3333333,10.4 12.3333333,10 L12.3333333,8.66666667 C12.3333333,8.26666667 12.6,8 13,8 L22.3333333,8 Z M22.3333333,13.3333333 C22.7333333,13.3333333 23,13.6 23,14 L23,15.3333333 C23,15.7333333 22.7333333,16 22.3333333,16 L13,16 C12.6,16 12.3333333,15.7333333 12.3333333,15.3333333 L12.3333333,14 C12.3333333,13.6 12.6,13.3333333 13,13.3333333 L22.3333333,13.3333333 Z M22.3333333,18.6666667 C22.7333333,18.6666667 23,18.9333333 23,19.3333333 L23,20.6666667 C23,21.0666667 22.7333333,21.3333333 22.3333333,21.3333333 L13,21.3333333 C12.6,21.3333333 12.3333333,21.0666667 12.3333333,20.6666667 L12.3333333,19.3333333 C12.3333333,18.9333333 12.6,18.6666667 13,18.6666667 L22.3333333,18.6666667 Z"/>
</svg>
