<svg xmlns="http://www.w3.org/2000/svg" width="30" height="30" viewBox="0 0 30 30">
  <path d="M22.6084247,20.7175365 L19.1325066,17.2416824 C19.1140337,17.2232094 19.0923647,17.2102975 19.0730608,17.193103 C19.7570073,16.1556138 20.1561891,14.9137077 20.1561891,13.5781585 C20.1561891,9.94512448 17.2110646,7 13.5780945,7 C9.94512448,7 7,9.94512448 7,13.5780945 C7,17.2110007 9.94506056,20.1561891 13.5780306,20.1561891 C14.9136438,20.1561891 16.155486,19.7570073 17.1929752,19.0730608 C17.2101697,19.0923008 17.2230177,19.1139698 17.2414906,19.1324427 L20.7174726,22.6084247 C21.2396369,23.1305251 22.0861964,23.1305251 22.6084247,22.6084247 C23.1305251,22.0862603 23.1305251,21.2397009 22.6084247,20.7175365 Z M13.5780945,17.875771 C11.2044808,17.875771 9.28035412,15.9516443 9.28035412,13.5780945 C9.28035412,11.2044808 11.2045447,9.28035412 13.5780945,9.28035412 C15.9515804,9.28035412 17.875771,11.2045447 17.875771,13.5780945 C17.875771,15.9516443 15.9515804,17.875771 13.5780945,17.875771 Z"/>
</svg>
