<svg xmlns="http://www.w3.org/2000/svg" xmlns:xlink="http://www.w3.org/1999/xlink" width="370" height="355" viewBox="0 0 370 355">
  <defs>
    <rect id="mail_krasivo_svg-a" width="521" height="506"/>
  </defs>
  <g fill="none" fill-rule="evenodd" transform="translate(-137 -151)">
    <mask id="mail_krasivo_svg-b" fill="#fff">
      <use xlink:href="#mail_krasivo_svg-a"/>
    </mask>
    <g mask="url(#mail_krasivo_svg-b)">
      <g fill="#FFF" fill-rule="nonzero" transform="translate(-30 151)">
        <path d="M0,13.4726935 L9.44959752,112.646687 L151.1,99.1739938 L141.650402,0 L0,13.4726935 Z M137.814427,9.91739938 L96.0865015,53.2358514 L145.486378,90.1921981 L145.95418,94.9637771 L91.2213622,58.2881115 L77.0937461,72.8835294 L60.44,61.188483 L13.6598142,107.594427 L13.1920124,102.916409 L54.7328173,57.2589474 L5.52006192,22.6416099 L5.05226006,17.9635913 L75.6903406,58.8494737 L137.346625,5.33294118 L137.814427,9.91739938 Z" transform="translate(353 93)"/>
        <path d="M0,28.9290323 L20.2258065,54.6709677 L57,25.7419355 L36.7741935,0 L0,28.9290323 Z M37.5096774,3.43225806 L33.6483871,22.8 L53.8741935,24.2709677 L54.8548387,25.4967742 L33.2193548,25.0677419 L31.9322581,31.6258065 L25.2516129,31.3193548 L20.5322581,52.4645161 L19.5516129,51.2387097 L22.9225806,31.2580645 L3.18709677,30.4 L2.20645161,29.1741935 L28.9903226,27.9483871 L36.5290323,2.20645161 L37.5096774,3.43225806 Z" opacity=".5" transform="translate(226 253)"/>
        <path d="M34,0 L0,49.5 L70.6,98.1 L104.6,48.6 L34,0 Z M99,51.7 L63,55.5 L71.5,91.7 L69.9,94.1 L58.8,56 L46.6,57.3 L43.5,45.5 L4,48.8 L5.6,46.4 L42.4,41.4 L33.1,6.4 L34.7,4 L51.5,50.2 L100.7,49.3 L99,51.7 Z" transform="translate(202 137)"/>
        <g transform="translate(270 5)">
          <path d="M32,36 L3,59.5 L36.5,100.9 L65.5,77.4 L32,36 Z M61.6,78.3 L39.5,74.2 L38.2,97.2 L36.8,98.3 L36.9,73.7 L29.4,72.3 L29.6,64.7 L5.5,59.7 L6.9,58.6 L29.7,62.1 L30.3,39.6 L31.7,38.5 L33.5,69 L62.9,77.1 L61.6,78.3 Z" opacity=".2" transform="rotate(-93 34.25 68.45)"/>
          <path d="M159.613824,3.303069 L138.189589,20.6640867 L162.938274,51.2490285 L184.362508,33.8880108 L159.613824,3.303069 Z M181.481318,34.5529008 L165.154574,31.5239573 L164.194177,48.5155917 L163.159904,49.328235 L163.233781,31.154574 L157.69303,30.1203006 L157.840784,24.5056736 L140.036506,20.81184 L141.070779,19.9991967 L157.91466,22.5848801 L158.35792,5.96262916 L159.392194,5.14998578 L160.721974,27.6823704 L182.441715,33.6663808 L181.481318,34.5529008 Z" transform="rotate(-99 161.276 27.276)"/>
        </g>
        <path d="M41.619846,0 L0,40.2552609 L57.483148,99.7 L99.102994,59.4447391 L41.619846,0 Z M93.3035073,61.3210436 L58.5065868,58.080154 L59.6153122,93.9005133 L57.6537211,95.7768178 L54.498118,57.6537211 L42.7285714,56.5449957 L42.0462789,44.7754491 L4.00846878,40.3405475 L5.97005988,38.4642429 L41.7904192,40.7669803 L39.7435415,5.88477331 L41.7051326,4.00846878 L48.6986313,50.9160821 L95.3503849,59.5300257 L93.3035073,61.3210436 Z" opacity=".7" transform="translate(392 240)"/>
        <path d="M21.5,0.7 L0.8,48.9 L69.6,78.4 L90.3,30.2 L21.5,0.7 Z M86.1,33.8 L55.9,43.2 L69.4,72.7 L68.4,75 L52.4,44.3 L42.2,47.5 L37.5,37.9 L4.2,47.5 L5.2,45.2 L35.9,34.6 L22,6.2 L23,3.9 L45.3,40.6 L87.2,31.5 L86.1,33.8 Z" transform="translate(162 316)"/>
        <path d="M16.2,0.2 L0.7,61.2 L87.9,83.3 L103.4,22.3 L16.2,0.2 Z M99,27.5 L64.9,44.4 L86.4,76.9 L85.7,79.8 L61,46.3 L49.5,52 L42.1,41.5 L4.4,59.1 L5.1,56.2 L39.5,37.9 L17.6,6.8 L18.3,3.9 L51.6,43.3 L99.7,24.6 L99,27.5 Z" opacity=".5" transform="translate(280 325)"/>
        <path d="M16,0.0567857143 L0.213571429,0 L0.1,22.5439286 L15.8864286,22.6007143 L16,0.0567857143 Z M14.41,21.8625 L8.22035714,14.5939286 L1.63321429,21.8057143 L0.895,21.8057143 L7.53892857,13.7421429 L5.43785714,11.3003571 L7.53892857,8.85857143 L0.951785714,0.738214286 L1.69,0.738214286 L8.22035714,8.00678571 L14.4667857,0.795 L15.205,0.795 L7.6525,11.3003571 L15.1482143,21.8625 L14.41,21.8625 Z" opacity=".2" transform="translate(468 216)"/>
        <circle cx="527.2" cy="233.8" r="9.3" opacity=".7"/>
        <circle cx="194.8" cy="259.8" r="6.8"/>
        <circle cx="348.8" cy="270.8" r="6.8"/>
        <circle cx="517.7" cy="36.1" r="6.8" opacity=".7"/>
        <circle cx="233.3" cy="168.5" r="2.7" opacity=".5"/>
        <circle cx="524.5" cy="299.3" r="2.7" opacity=".2"/>
        <circle cx="428.5" cy="350.7" r="2.7"/>
        <circle cx="508.7" cy="272.7" r="2.7" opacity=".2"/>
        <circle cx="336.7" cy="233.7" r="2.7" opacity=".2"/>
        <circle cx="504.1" cy="56.3" r="2.7" opacity=".5"/>
        <circle cx="486.7" cy="2.7" r="2.7" opacity=".5"/>
        <circle cx="246.5" cy="83.6" r="2.7" opacity=".5"/>
        <circle cx="221.7" cy="238.7" r="2.7" opacity=".5"/>
      </g>
    </g>
  </g>
</svg>
