<?xml version="1.0" encoding="UTF-8"?>
<svg width="40px" height="40px" viewBox="0 0 40 40" version="1.1" xmlns="http://www.w3.org/2000/svg" xmlns:xlink="http://www.w3.org/1999/xlink">
    <!-- Generator: Sketch 48.2 (47327) - http://www.bohemiancoding.com/sketch -->
    <title>Soc/twiter</title>
    <desc>Created with Sketch.</desc>
    <defs>
        <path d="M28,14.5381046 C27.4111101,14.7991145 26.7792398,14.9761285 26.1153433,15.0551558 C26.7932268,14.6491142 27.3121296,14.0050752 27.5580646,13.2400109 C26.9221943,13.6160316 26.2203108,13.8890708 25.4724403,14.0370837 C24.8735635,13.3980395 24.021719,13 23.0768808,13 C21.2642243,13 19.7944964,14.4701128 19.7944964,16.2822503 C19.7944964,16.5392592 19.8234899,16.7902796 19.87949,17.0303167 C17.1520084,16.8932871 14.7334685,15.5861977 13.1147731,13.6000274 C12.8318184,14.0840764 12.6708508,14.6480943 12.6708508,15.2501614 C12.6708508,16.3892589 13.2507471,17.3943342 14.1305917,17.9823583 C13.5926823,17.9643667 13.086773,17.8163538 12.6438703,17.5703282 L12.6438703,17.6113325 C12.6438703,19.2014508 13.775663,20.5285455 15.2763714,20.8305858 C15.0014167,20.9045923 14.7114816,20.9455965 14.4115334,20.9455965 C14.1995853,20.9455965 13.9946176,20.9245975 13.79365,20.884587 C14.2115592,22.189689 15.423352,23.1387495 16.8590929,23.1647694 C15.7362937,24.0448444 14.3205528,24.5678841 12.782851,24.5678841 C12.5179093,24.5678841 12.2569416,24.5518799 12,24.5228788 C13.4527344,25.4559612 15.177417,26 17.031067,26 C23.0689331,26 26.3693307,20.9976102 26.3693307,16.6592908 L26.3583241,16.2342638 C27.0031879,15.7741949 27.5610712,15.1961603 28,14.5381046 Z" id="path-1"></path>
    </defs>
    <g id="Page-4" stroke="none" stroke-width="1" fill="none" fill-rule="evenodd">
        <g id="Soc/twiter">
            <mask id="mask-2" fill="white">
                <use xlink:href="#path-1"></use>
            </mask>
            <use id="Shape" fill="#000000" fill-rule="nonzero" xlink:href="#path-1"></use>
        </g>
    </g>
</svg>