<svg xmlns="http://www.w3.org/2000/svg" width="32" height="32" viewBox="0 0 32 32">
  <path d="M26,9.92212732 C25.2638877,10.2483043 24.4740498,10.4695138 23.6441792,10.5682722 C24.4915335,10.060853 25.140162,9.25601512 25.4475808,8.29993513 C24.6527429,8.76983786 23.7753885,9.11104757 22.8405504,9.29601519 C22.0919544,8.49741911 21.0271487,8 19.8461011,8 C17.5802804,8 15.7431205,9.83715986 15.7431205,12.1017387 C15.7431205,12.4229157 15.7793624,12.736609 15.8493625,13.0365769 C12.4400105,12.8653347 9.41683565,11.2319007 7.39346633,8.74983783 C7.03977294,9.35474078 6.83856346,10.0595785 6.83856346,10.8119654 C6.83856346,12.2354644 7.56343393,13.4914796 8.66323965,14.2263174 C7.99085293,14.2038337 7.35846627,14.018866 6.80483792,13.7114146 L6.80483792,13.7626565 C6.80483792,15.7497839 8.21957879,17.408218 10.0954642,17.7856696 C9.75177084,17.8781534 9.38935194,17.9293953 9.01441669,17.9293953 C8.74948162,17.9293953 8.49327205,17.9031534 8.24206249,17.8531534 C8.76444896,19.4841037 10.27919,20.6701187 12.0738661,20.7026351 C10.6703671,21.8024409 8.90069101,22.4560694 6.97856369,22.4560694 C6.64738668,22.4560694 6.321177,22.4360693 6,22.3998275 C7.815918,23.5658751 9.9717712,24.2457455 12.2888338,24.2457455 C19.8361664,24.2457455 23.9616633,17.9943954 23.9616633,12.572916 L23.9479051,12.0417713 C24.7539849,11.4668357 25.451339,10.7444816 26,9.92212732 Z"/>
</svg>
