<svg xmlns="http://www.w3.org/2000/svg" width="187" height="187" viewBox="0 0 187 187">
  <g fill="none" fill-rule="evenodd">
    <polygon fill="#FFF" points="0 0 187 0 187 187 0 187"/>
    <g transform="translate(8 53)">
      <path fill="#C82636" d="M54.9249731,58.1238941 C56.4957263,57.9660746 57.5963221,56.7044932 57.5963221,55.2870407 L57.5963221,14.9407896 C57.5963221,-0.0316003946 76.7678653,-7.28155332 86.9821325,10.2130254 C97.3547378,28.0212946 103.32496,38.4237398 103.32496,38.4237398 L103.32496,14.9407896 C103.32496,-0.0316003946 122.498446,-7.28155332 132.713685,10.2130254 C138.187372,19.6013781 143.635002,29.0049859 149.056512,38.4237398 L149.056512,0.284038513 L172,0.284038513 L172,67.1069384 C172,84.284904 151.885228,86.9639379 143.711871,73.2531293 C138.841273,65.2160275 126.270391,44.4121113 126.270391,44.4121113 L126.270391,67.1079126 C126.425815,84.2858782 106.311042,86.9649121 97.982262,73.2541035 C93.1116642,65.2170017 80.6962054,44.4130855 80.6962054,44.4130855 L80.6962054,64.9013628 C80.6962054,75.4616275 74.5676451,80.9775148 64.9818735,80.9775148 L42.8242478,80.9775148 C-13.9064623,80.9775148 -14.3775911,0.285012707 42.0383855,0.285012707 L54.6102396,0.285012707 L54.6102396,23.1376593 L40.780423,23.1376593 C17.6795683,23.1376593 15.165586,58.1258424 42.3521476,58.1258424 L54.9249731,58.1258424 L54.9249731,58.1238941 Z"/>
      <path stroke="#FFF" stroke-width="2.638" d="M160,0 L160,65.1753774 C160,69.2595172 156.076286,70.2021604 154.038283,67.3752017 C154.038283,67.3752017 127.360909,24.4999851 120.612509,13.3494193 C118.571596,10.5224606 114.335537,11.4651038 114.335537,15.7055418 L114.335537,65.1753774 C114.335537,69.2595172 110.568965,70.2021604 108.529022,67.3752017 C108.529022,67.3752017 81.6954756,24.4999851 74.9480458,13.3494193 C72.9081026,10.5224606 68.6710736,11.4651038 68.6710736,15.7055418 L68.6710736,64.862781 C68.6710736,67.0606637 66.9444455,68.9449792 64.5911872,68.9449792 L40.8937015,68.9449792 C0.564325152,68.9449792 1.8204956,11.4651038 39.9527862,11.4651038 L54.5466737,11.4651038"/>
    </g>
  </g>
</svg>
